<?xml version="1.0" encoding="UTF-8" standalone="no"?>
<!-- Created with Inkscape (http://www.inkscape.org/) -->

<svg
   xmlns:dc="http://purl.org/dc/elements/1.1/"
   xmlns:cc="http://creativecommons.org/ns#"
   xmlns:rdf="http://www.w3.org/1999/02/22-rdf-syntax-ns#"
   xmlns:svg="http://www.w3.org/2000/svg"
   xmlns="http://www.w3.org/2000/svg"
   xmlns:sodipodi="http://sodipodi.sourceforge.net/DTD/sodipodi-0.dtd"
   xmlns:inkscape="http://www.inkscape.org/namespaces/inkscape"
   id="svg4142"
   version="1.1"
   inkscape:version="0.91 r13725"
   xml:space="preserve"
   width="6882.4502"
   height="839.90002"
   viewBox="0 0 6882.4502 839.90002"
   sodipodi:docname="columbia.svg"><metadata
     id="metadata4148"><rdf:RDF><cc:Work
         rdf:about=""><dc:format>image/svg+xml</dc:format><dc:type
           rdf:resource="http://purl.org/dc/dcmitype/StillImage" /><dc:title></dc:title></cc:Work></rdf:RDF></metadata><defs
     id="defs4146" /><sodipodi:namedview
     pagecolor="#ffffff"
     bordercolor="#666666"
     borderopacity="1"
     objecttolerance="10"
     gridtolerance="10"
     guidetolerance="10"
     inkscape:pageopacity="0"
     inkscape:pageshadow="2"
     inkscape:window-width="1080"
     inkscape:window-height="1872"
     id="namedview4144"
     showgrid="false"
     showguides="false"
     inkscape:zoom="0.099383211"
     inkscape:cx="3441.2251"
     inkscape:cy="419.95001"
     inkscape:window-x="0"
     inkscape:window-y="0"
     inkscape:window-maximized="1"
     inkscape:current-layer="g4150" /><g
     id="g4150"
     inkscape:groupmode="layer"
     inkscape:label="ink_ext_XXXXXX"
     transform="matrix(1.25,0,0,-1.25,0,839.9)"><g
       id="g4152"
       transform="scale(0.375324,0.375324)"><path
         d="m 8883.64,153.492 -11.09,1.578 c -19,2.633 -20.03,7.918 -20.03,45.887 l 0,94.949 c 0,21.614 1.03,46.934 2.1,65.391 -0.53,2.129 -2.64,3.168 -5.27,3.168 -12.13,-7.899 -42.21,-21.625 -54.33,-25.836 -2.64,-1.586 -2.64,-7.383 -0.53,-9.504 l 4.74,-3.168 c 14.25,-9.496 14.25,-12.125 14.25,-32.691 l 0,-92.309 c 0,-37.969 -0.53,-43.254 -20.03,-45.887 l -11.09,-1.578 c -3.7,-2.648 -2.63,-11.613 1.04,-13.191 14.79,1.058 30.59,1.578 49.59,1.578 18.46,0 33.76,-0.52 49.58,-1.578 3.7,1.578 4.74,10.543 1.07,13.191 z M 8802.4,463.09 c 0,-14.231 10.55,-25.84 26.91,-25.84 14.23,0 27.42,8.438 27.42,26.902 0,14.77 -10.02,26.903 -25.85,26.903 -15.29,0 -28.48,-10.543 -28.48,-27.965 z M 8640.99,221 c -25.31,0 -47.98,24.277 -47.98,61.707 0,35.871 18.99,59.07 44.31,59.07 32.18,0 46.94,-30.05 46.94,-65.933 0,-32.172 -14.76,-54.844 -43.27,-54.844 z M 8606.2,119.211 c 7.38,4.734 28.48,5.793 45.37,5.793 l 17.93,0 c 37.97,0 60.11,-13.711 60.11,-45.8868 0,-30.0664 -31.12,-56.4453 -78.04,-56.4453 -48.01,0 -70.68,23.7539 -70.68,52.2226 0,20.043 12.65,36.3985 25.31,44.3165 z m 155.6,218.894 -42.71,0 c -11.62,0 -15.3,1.043 -32.19,8.446 -12.12,5.246 -30.59,10.539 -50.62,10.539 -46.95,0 -85.98,-34.281 -85.98,-79.664 0,-33.754 21.61,-54.324 39.56,-63.801 0,-2.648 -2.63,-6.875 -5.27,-10.023 -8.98,-9.504 -19,-18.461 -27.98,-24.274 -5.78,-4.211 -7.88,-6.316 -7.88,-8.957 0,-18.465 17.93,-36.41 38.5,-41.676 4.74,-3.172 0.5,-7.902 -4.24,-12.648 -12.12,-12.133 -26.88,-25.8634 -35.86,-35.3439 -3.68,-4.2109 -5.81,-11.082 -5.81,-19.5273 C 8541.32,34.8203 8564.02,0 8628.9,0 c 68.55,0 131.32,42.1914 131.32,99.6875 0,52.7575 -44.31,58.0155 -73.85,58.0155 -23.21,0 -44.82,-1.57 -62.75,-1.57 -24.8,0 -36.92,10.008 -36.92,22.152 0,15.293 16.86,25.317 23.2,29.008 6.34,-0.543 13.72,-1.586 23.21,-1.586 66.98,0 88.61,47.473 88.61,83.867 0,8.961 0,17.926 -1.06,26.887 l 37.97,0 c 7.91,1.059 8.98,18.996 3.17,21.644 z m 399.25,-184.613 -11.62,1.578 c -18.97,2.633 -20.03,7.918 -20.03,45.887 l 0,90.723 c 0,35.34 -17.93,65.41 -61.71,65.41 -26.91,0 -51.69,-13.195 -73.83,-26.899 -3.7,0 -5.81,2.625 -5.81,5.789 0,4.754 0,12.668 1.04,24.793 -1.04,2.653 -3.68,3.692 -5.78,3.692 -10.55,-7.899 -40.63,-21.625 -52.75,-25.836 -2.64,-1.586 -2.64,-7.383 -0.54,-9.504 l 4.75,-3.168 c 14.25,-9.496 14.25,-12.125 14.25,-32.691 l 0,-92.309 c 0,-37.969 -0.53,-43.254 -20.04,-45.887 l -11.08,-1.578 c -3.7,-2.648 -2.64,-11.613 1.04,-13.191 14.79,1.058 30.61,1.578 49.58,1.578 18.47,0 33.76,-0.52 48.02,-1.578 3.67,1.578 4.74,10.543 1.03,13.191 l -9.48,1.578 c -19,3.168 -20.04,7.918 -20.04,45.887 l 0,80.699 c 0,15.297 1.04,22.696 7.91,31.653 7.39,10.027 24.79,18.464 44.82,18.464 35.86,0 49.59,-22.168 49.59,-52.218 l 0,-78.598 c 0,-37.969 -0.51,-42.719 -20.04,-45.887 l -10.02,-1.578 c -3.7,-2.648 -2.64,-11.613 1.07,-13.191 14.23,1.058 30.05,1.578 49.02,1.578 18.49,0 33.76,-0.52 49.58,-1.578 3.71,1.578 4.77,10.543 1.07,13.191 z m 727.83,0 -11.09,1.578 c -18.99,2.633 -20.03,7.918 -20.03,45.887 l 0,94.949 c 0,21.614 1.04,46.934 2.1,65.391 -0.53,2.129 -2.64,3.168 -5.27,3.168 -12.13,-7.899 -42.21,-21.625 -54.33,-25.836 -2.64,-1.586 -2.64,-7.383 -0.53,-9.504 l 4.74,-3.168 c 14.25,-9.496 14.25,-12.125 14.25,-32.691 l 0,-92.309 c 0,-37.969 -0.53,-43.254 -20.06,-45.887 l -11.06,-1.578 c -3.7,-2.648 -2.64,-11.613 1.04,-13.191 14.79,1.058 30.61,1.578 49.59,1.578 18.46,0 33.75,-0.52 49.58,-1.578 3.68,1.578 4.74,10.543 1.07,13.191 z m -1375.51,0 -11.59,1.578 c -18.97,2.633 -20.04,7.918 -20.04,45.887 l 0,90.723 c 0,35.34 -17.93,65.41 -61.7,65.41 -26.91,0 -51.69,-13.195 -73.86,-26.899 -3.68,0 -5.78,2.625 -5.78,5.789 0,4.754 0,12.668 1.04,24.793 -1.04,2.653 -3.68,3.692 -5.81,3.692 -10.52,-7.899 -40.61,-21.625 -52.73,-25.836 -2.63,-1.586 -2.63,-7.383 -0.53,-9.504 l 4.74,-3.168 c 14.26,-9.496 14.26,-12.125 14.26,-32.691 l 0,-92.309 c 0,-37.969 -0.54,-43.254 -20.07,-45.887 l -11.05,-1.578 c -3.71,-2.648 -2.64,-11.613 1.04,-13.191 14.76,1.058 30.58,1.578 49.58,1.578 18.46,0 33.76,-0.52 48.01,-1.578 3.68,1.578 4.75,10.543 1.04,13.191 l -9.48,1.578 c -19,3.168 -20.04,7.918 -20.04,45.887 l 0,80.699 c 0,15.297 1.04,22.696 7.89,31.653 7.38,10.027 24.8,18.464 44.84,18.464 35.86,0 49.58,-22.168 49.58,-52.218 l 0,-78.598 c 0,-37.969 -0.53,-42.719 -20.03,-45.887 l -10.02,-1.578 c -3.71,-2.648 -2.64,-11.613 1.04,-13.191 14.25,1.058 30.05,1.578 49.05,1.578 18.46,0 33.75,-0.52 49.58,-1.578 3.68,1.578 4.74,10.543 1.04,13.191 z M 9742.25,357.09 c -19.5,0 -39.54,-16.356 -58,-31.652 -1.06,0.519 -1.6,2.105 -1.6,4.753 l 0,30.582 c 0,2.106 -1.57,3.172 -4.2,3.692 -13.2,-7.899 -41.15,-21.625 -53.29,-25.836 -2.61,-1.586 -2.61,-7.383 -0.51,-9.504 l 4.74,-3.168 c 14.23,-9.496 14.23,-12.125 14.23,-32.691 l 0,-92.309 c 0,-37.969 -0.53,-42.719 -20.03,-45.887 l -10.02,-1.578 c -3.71,-2.648 -2.64,-11.613 1.04,-13.191 13.72,1.058 29.54,1.578 48.54,1.578 18.46,0 33.76,-0.52 58.54,-1.578 3.7,1.578 4.74,10.543 1.06,13.191 l -19,1.578 c -20.03,1.582 -21.1,7.918 -21.1,45.887 l 0,71.742 c 0,17.918 1.6,33.231 6.85,40.61 4.24,5.793 10.55,10.546 19,10.546 7.38,0 15.29,-3.167 23.2,-8.441 3.71,-2.105 6.35,-3.687 11.62,-3.687 8.45,0 22.68,6.851 22.68,24.253 0,12.668 -10.55,21.11 -23.75,21.11 z m -240.51,-15.836 c 30.59,0 40.61,-18.445 40.61,-33.231 0,-6.863 -1.57,-8.964 -3.15,-10.007 -4.23,-3.168 -15.82,-5.293 -54.86,-5.293 l -37.46,0 c -3.67,0 -3.67,1.582 -3.67,2.648 0.53,17.418 27.42,45.883 58.53,45.883 z m 71.76,-151.383 c -16.36,-20.547 -31.15,-25.836 -48.55,-25.836 -56.43,0 -87.55,45.36 -87.55,98.637 0,13.172 0.53,14.234 14.25,14.234 l 97.57,0 c 22.14,0 29.55,0.52 31.12,3.707 1.04,2.094 2.11,6.321 2.11,13.692 0,31.652 -29.55,62.785 -74.9,62.785 -63.28,0 -106.01,-54.348 -106.01,-119.211 0,-23.215 6.34,-48.008 22.14,-68.555 15.29,-20.062 42.2,-34.816 76.49,-34.816 27.42,0 65.41,13.187 82.81,49.047 -0.53,4.754 -4.21,7.918 -9.48,6.316 z m -280.62,151.383 c 30.62,0 40.64,-18.445 40.64,-33.231 0,-6.863 -1.6,-8.964 -3.18,-10.007 -4.2,-3.168 -15.82,-5.293 -54.86,-5.293 l -37.46,0 c -3.67,0 -3.67,1.582 -3.67,2.648 0.53,17.418 27.41,45.883 58.53,45.883 z m 71.73,-151.383 c -16.33,-20.547 -31.09,-25.836 -48.49,-25.836 -56.46,0 -87.58,45.36 -87.58,98.637 0,13.172 0.53,14.234 14.25,14.234 l 97.57,0 c 22.17,0 29.55,0.52 31.12,3.707 1.07,2.094 2.11,6.321 2.11,13.692 0,31.652 -29.52,62.785 -74.9,62.785 -63.28,0 -106.01,-54.348 -106.01,-119.211 0,-23.215 6.34,-48.008 22.14,-68.555 15.32,-20.062 42.2,-34.816 76.49,-34.816 27.42,0 65.41,13.187 82.81,49.047 -0.53,4.754 -4.21,7.918 -9.51,6.316 z m 801.69,-36.379 -11.6,1.578 c -19,2.633 -20.1,7.918 -20.1,45.887 l 0,90.723 c 0,35.34 -17.9,65.41 -61.7,65.41 -26.9,0 -51.7,-13.195 -73.8,-26.899 -3.7,0 -5.81,2.625 -5.81,5.789 0,4.754 0,12.668 1.04,24.793 -1.04,2.653 -3.67,3.692 -5.78,3.692 -10.55,-7.899 -40.63,-21.625 -52.75,-25.836 -2.64,-1.586 -2.64,-7.383 -0.54,-9.504 l 4.77,-3.168 c 14.23,-9.496 14.23,-12.125 14.23,-32.691 l 0,-92.309 c 0,-37.969 -0.53,-43.254 -20.04,-45.887 l -11.08,-1.578 c -3.7,-2.648 -2.64,-11.613 1.07,-13.191 14.75,1.058 30.58,1.578 49.58,1.578 18.44,0 33.71,-0.52 48.01,-1.578 3.7,1.578 4.7,10.543 1,13.191 l -9.5,1.578 c -18.97,3.168 -20.01,7.918 -20.01,45.887 l 0,80.699 c 0,15.297 1.04,22.696 7.91,31.653 7.4,10.027 24.8,18.464 44.8,18.464 35.9,0 49.6,-22.168 49.6,-52.218 l 0,-78.598 c 0,-37.969 -0.5,-42.719 -20,-45.887 l -10,-1.578 c -3.8,-2.648 -2.7,-11.613 1,-13.191 14.2,1.058 30.1,1.578 49.1,1.578 18.4,0 33.7,-0.52 49.5,-1.578 3.7,1.578 4.8,10.543 1.1,13.191 z m -3593.84,-7.937 -14.23,1.578 c -18.97,2.129 -20.03,7.918 -20.03,45.906 l 0,88.082 c 0,36.926 -17.96,68.035 -68.05,68.035 -26.88,0 -52.22,-12.648 -71.22,-27.426 -1.57,1.051 -2.11,5.274 -2.11,10.024 l 0,110.75 c 0,23.215 1.04,49.59 1.6,65.414 -1.06,2.105 -3.17,3.16 -5.27,3.16 -19,-10.015 -43.78,-17.937 -56.97,-22.144 -2.64,-1.586 -2.64,-8.985 0,-10.543 l 5.28,-3.172 c 15.83,-9.5 16.33,-12.664 16.33,-43.778 l 0,-238.402 c 0,-37.988 -0.5,-43.777 -20.04,-45.906 l -13.18,-1.578 c -3.68,-2.625 -2.64,-11.59 1.06,-13.172 16.87,1.062 32.69,1.582 51.69,1.582 18.47,0 33.76,-0.52 49.59,-1.582 3.67,1.582 4.71,11.07 1.06,13.172 l -11.08,1.578 c -19.03,2.652 -20.07,7.918 -20.07,45.906 l 0,88.602 c 0,18.464 1.6,21.105 11.09,29.007 9.48,7.918 23.2,14.254 41.14,14.254 33.75,0 50.09,-22.691 50.09,-56.445 l 0,-75.418 c 0,-37.988 -0.51,-42.719 -20.01,-45.906 l -10.56,-1.578 c -3.7,-2.625 -2.63,-11.59 1.04,-13.172 14.26,1.062 30.09,1.582 49.05,1.582 18.47,0 33.76,-0.52 52.76,-1.582 3.68,1.582 4.74,10.547 1.04,13.172 z m 142.41,-3.153 c -46.41,0 -68.05,51.684 -68.05,99.688 0,58.015 25.84,91.25 60.67,91.25 50.09,0 68.05,-56.969 68.05,-101.809 0,-40.613 -14.26,-89.129 -60.67,-89.129 z m -1.07,206.754 c -62.21,0 -112.33,-47.465 -112.33,-113.918 0,-65.933 47.48,-108.668 108.12,-108.668 65.95,0 111.29,47.465 111.29,113.403 0,64.879 -48.01,109.183 -107.08,109.183 z M 6300.83,187.754 c -12.1,-17.926 -27.95,-31.637 -58.54,-31.637 -56.43,0 -84.91,49.051 -84.91,90.188 0,55.906 35.86,84.914 72.79,84.914 21.63,0 41.16,-13.719 52.75,-27.949 2.11,-2.645 4.74,-3.684 7.38,-3.684 6.34,0 11.59,10.016 11.59,19.5 0,8.98 -3.68,17.422 -7.88,21.105 -14.26,6.332 -34.83,8.965 -46.95,8.965 -87.58,0 -127.65,-60.66 -127.65,-117.625 0,-34.281 12.15,-60.121 30.59,-78.058 18.46,-17.922 44.3,-26.903 72.25,-26.903 30.59,0 70.16,14.778 88.09,53.801 -0.54,4.758 -5.25,8.438 -9.51,7.383 z m 1933.47,29.559 c -13.72,-27.442 -27.94,-45.883 -37.46,-51.172 -11.59,-5.797 -26.88,-7.903 -67.48,-7.903 -46.42,0 -57.5,5.797 -63.84,12.133 -8.42,8.957 -10.02,26.895 -10.02,54.84 l 0,74.371 c 0,13.727 1.6,14.25 17.4,14.25 l 30.61,0 c 20.57,0 33.22,-0.523 40.6,-2.644 10.55,-2.629 14.23,-10.547 16.34,-20.043 l 4.77,-20.555 c 2.64,-3.188 11.59,-3.188 13.69,0.519 0,11.598 -2.1,31.633 -2.1,50.641 0,20.027 2.1,40.609 2.1,53.258 -2.1,3.691 -11.05,3.691 -13.69,0.519 l -4.24,-21.605 c -2.64,-13.188 -6.32,-16.359 -12.66,-18.465 -6.31,-2.117 -22.67,-3.16 -44.81,-3.16 l -30.61,0 c -15.8,0 -17.4,0 -17.4,14.773 l 0,105.473 c 0,20.051 0,21.109 15.82,21.109 l 37.97,0 c 23.24,0 40.1,-0.539 51.16,-3.168 27.44,-6.851 32.18,-25.316 40.1,-50.109 2.63,-3.172 11.08,-2.109 13.18,1.059 -2.1,23.195 -5.27,61.183 -8.44,70.14 -6.31,-1.586 -37.43,-1.586 -71.19,-1.586 l -99.17,0 c -21.63,0 -39.57,0.547 -62.24,1.586 -3.14,-1.586 -4.21,-11.062 -1.06,-13.187 l 8.44,-1.051 c 31.12,-3.684 32.18,-11.598 32.18,-66.465 l 0,-189.871 c 0,-55.387 -2.63,-63.297 -32.69,-65.93 l -17.42,-1.578 c -3.17,-3.176 -2.1,-11.613 1.06,-13.191 31.12,1.058 49.05,1.578 71.73,1.578 l 47.48,0 c 46.95,0 93.89,-0.52 141.34,-1.578 6.85,14.246 20.07,54.863 23.74,73.324 -2.1,4.734 -9.48,6.336 -13.19,3.688 z m -2227.22,107.046 -42.2,26.379 c -19.5,12.668 -44.84,34.282 -44.84,64.867 0,24.274 11.08,58.555 62.77,58.555 50.62,0 64.88,-34.281 71.75,-59.594 2.64,-3.171 11.08,-1.589 13.19,1.582 0,22.145 -4.77,51.676 -9.51,64.344 -4.24,0 -11.6,1.586 -18.47,3.164 -13.69,4.215 -32.69,6.86 -49.05,6.86 -68.55,0 -107.59,-40.61 -107.59,-90.727 0,-43.254 30.59,-73.305 56.97,-90.726 l 50.11,-32.692 c 38.48,-24.797 43.22,-50.637 43.22,-73.848 0,-31.648 -21.61,-60.64 -65.91,-60.64 -61.18,0 -82.79,51.683 -90.73,78.582 -2.08,3.164 -10.02,2.105 -12.65,-1.586 1.06,-24.793 7.91,-62.242 14.25,-73.844 10.02,-5.797 37.97,-19.508 82.28,-19.508 68.58,0 112.35,39.547 112.35,97.567 0,50.109 -32.72,80.703 -65.94,101.265 z M 7775.5,511.078 c -52.22,0 -81.74,-36.918 -94.93,-66.988 -12.68,-29.524 -16.36,-62.242 -16.36,-92.832 0,-5.27 -3.7,-8.438 -7.91,-10.543 l -22.68,-11.067 c -2.13,-3.164 -1.6,-7.918 1.58,-10.019 l 18.46,0 c 10.55,0 10.55,-1.063 10.55,-15.297 l 0,-111.293 c 0,-37.988 -0.53,-43.254 -20.04,-45.906 l -12.15,-1.578 c -3.67,-2.625 -2.63,-11.59 1.07,-13.172 15.83,1.062 31.62,1.582 50.62,1.582 18.49,0 33.76,-0.52 57.5,-1.582 3.7,1.582 4.74,10.547 1.07,13.172 l -19,1.578 c -18.97,1.59 -20.04,7.918 -20.04,45.906 l 0,111.293 c 0,14.234 0,15.297 8.96,15.297 l 56.45,0 c 5.78,2.101 9.49,16.879 3.68,22.148 l -60.13,0 c -8.96,0 -8.96,0.524 -8.96,14.758 l 0,15.313 c 0,26.359 2.11,64.863 11.59,89.121 7.94,18.98 21.13,29.004 37.46,29.004 17.4,0 32.16,-11.582 42.18,-23.192 3.71,-4.226 6.87,-6.332 12.68,-6.332 9.99,0 20.04,8.438 20.04,18.981 0,18.984 -23.74,31.648 -51.69,31.648 z m -2078.02,-365.523 -11.62,1.578 c -18.97,2.652 -20,7.918 -20,45.906 l 0,90.707 c 0,35.34 -17.96,65.41 -61.74,65.41 -26.91,0 -51.69,-13.191 -73.83,-26.902 -3.7,0 -5.81,2.648 -5.81,5.812 0,4.731 0,12.649 1.07,24.778 -1.07,2.644 -3.7,3.691 -5.81,3.691 -10.55,-7.902 -40.63,-21.609 -52.75,-25.844 -2.61,-1.578 -2.61,-7.375 -0.51,-9.48 l 4.74,-3.164 c 14.23,-9.504 14.23,-12.149 14.23,-32.715 l 0,-92.293 c 0,-37.988 -0.53,-43.254 -20.04,-45.906 l -11.08,-1.578 c -3.68,-2.625 -2.64,-11.59 1.07,-13.172 14.76,1.062 30.58,1.582 49.58,1.582 18.47,0 33.76,-0.52 47.98,-1.582 3.68,1.582 4.75,10.547 1.07,13.172 l -9.51,1.578 c -18.97,3.187 -20.04,7.918 -20.04,45.906 l 0,80.684 c 0,15.297 1.07,22.691 7.92,31.652 7.38,10.023 24.8,18.461 44.81,18.461 35.89,0 49.61,-22.145 49.61,-52.219 l 0,-78.578 c 0,-37.988 -0.56,-42.719 -20.06,-45.906 l -10.02,-1.578 c -3.68,-2.625 -2.63,-11.59 1.07,-13.172 14.23,1.062 30.05,1.582 49.05,1.582 18.44,0 33.76,-0.52 49.58,-1.582 3.68,1.582 4.74,10.547 1.04,13.172 z m 1792.16,-3.153 c -46.41,0 -68.05,51.684 -68.05,99.688 0,58.015 25.87,91.25 60.67,91.25 50.12,0 68.05,-56.969 68.05,-101.809 0,-40.613 -14.26,-89.129 -60.67,-89.129 z m -1.07,206.754 c -62.23,0 -112.32,-47.465 -112.32,-113.918 0,-65.933 47.47,-108.668 108.11,-108.668 65.95,0 111.3,47.465 111.3,113.403 0,64.879 -47.99,109.183 -107.09,109.183 z m -274.77,-203.601 -12.66,1.578 c -19,2.652 -20.03,7.918 -20.03,45.906 l 0,249.465 c 0,23.215 1.03,49.59 1.57,65.414 -1.04,2.105 -3.14,3.16 -5.28,3.16 -18.99,-10.015 -43.77,-17.937 -56.96,-22.144 -2.64,-1.586 -2.64,-8.985 0,-10.543 l 5.27,-3.172 c 15.83,-9.5 16.36,-12.664 16.36,-43.778 l 0,-238.402 c 0,-37.988 -0.53,-43.254 -20.03,-45.906 l -12.15,-1.578 c -3.68,-2.625 -2.64,-11.59 1.06,-13.172 15.8,1.062 31.66,1.582 50.63,1.582 18.46,0 33.76,-0.52 51.15,-1.582 3.71,1.582 4.77,10.547 1.07,13.172 z m -242.62,-3.153 c -46.41,0 -68.05,51.684 -68.05,99.688 0,58.015 25.87,91.25 60.67,91.25 50.12,0 68.05,-56.969 68.05,-101.809 0,-40.613 -14.26,-89.129 -60.67,-89.129 z m -1.04,206.754 c -62.24,0 -112.35,-47.465 -112.35,-113.918 0,-65.933 47.48,-108.668 108.14,-108.668 65.92,0 111.29,47.465 111.29,113.403 0,64.879 -48.01,109.183 -107.08,109.183 z m 6762.56,114.996 c 0,14.77 -10.1,26.903 -25.9,26.903 -15.3,0 -28.4,-10.543 -28.4,-27.965 0,-14.231 10.5,-25.84 26.9,-25.84 14.2,0 27.4,8.438 27.4,26.902 z m 26.9,-310.66 -11.1,1.578 c -19,2.633 -20.1,7.918 -20.1,45.887 l 0,94.949 c 0,21.614 1.1,46.934 2.2,65.391 -0.6,2.129 -2.7,3.168 -5.3,3.168 -12.2,-7.899 -42.2,-21.625 -54.3,-25.836 -2.7,-1.586 -2.7,-7.383 -0.6,-9.504 l 4.8,-3.168 c 14.2,-9.496 14.2,-12.125 14.2,-32.691 l 0,-92.309 c 0,-37.969 -0.5,-43.254 -20,-45.887 l -11.1,-1.578 c -3.7,-2.648 -2.6,-11.613 1.1,-13.191 14.7,1.058 30.5,1.578 49.5,1.578 18.5,0 33.8,-0.52 49.6,-1.578 3.7,1.578 4.8,10.543 1.1,13.191 z m -132.4,42.192 c -12.2,-17.922 -28,-31.649 -58.5,-31.649 -56.5,0 -85,49.047 -85,90.199 0,55.907 35.9,84.914 72.8,84.914 21.6,0 41.1,-13.71 52.8,-27.96 2.1,-2.629 4.7,-3.688 7.3,-3.688 6.4,0 11.6,10.02 11.6,19.52 0,8.96 -3.6,17.402 -7.9,21.105 -14.2,6.316 -34.8,8.965 -46.9,8.965 -87.5,0 -127.6,-60.656 -127.6,-117.629 0,-34.273 12.1,-60.133 30.5,-78.055 18.5,-17.941 44.4,-26.898 72.3,-26.898 30.6,0 70.2,14.754 88.1,53.801 -0.5,4.734 -5.3,8.437 -9.5,7.375 z m -293.8,136.613 -42.2,26.351 c -19.5,12.672 -44.8,34.305 -44.8,64.891 0,24.258 11.1,58.559 62.7,58.559 50.7,0 64.9,-34.301 71.8,-59.618 2.6,-3.171 11.1,-1.585 13.2,1.583 0,22.148 -4.8,51.695 -9.5,64.343 -4.2,0 -11.6,1.582 -18.5,3.168 -13.7,4.227 -32.7,6.852 -49,6.852 -68.6,0 -107.6,-40.61 -107.6,-90.703 0,-43.258 30.6,-73.325 56.9,-90.727 l 50.1,-32.711 c 38.6,-24.773 43.3,-50.637 43.3,-73.832 0,-31.648 -21.6,-60.656 -65.9,-60.656 -61.2,0 -82.9,51.683 -90.8,78.601 -2.1,3.145 -10,2.106 -12.6,-1.601 1,-24.781 7.9,-62.223 14.2,-73.832 10.1,-5.805 38,-19.524 82.3,-19.524 68.6,0 112.3,39.571 112.3,97.582 0,50.114 -32.7,80.704 -65.9,101.274 z m 1126.1,-136.613 c -12.2,-17.922 -28,-31.649 -58.6,-31.649 -56.4,0 -84.9,49.047 -84.9,90.199 0,55.907 35.8,84.914 72.8,84.914 21.6,0 41.1,-13.71 52.7,-27.96 2.1,-2.629 4.8,-3.688 7.4,-3.688 6.3,0 11.6,10.02 11.6,19.52 0,8.96 -3.7,17.402 -7.9,21.105 -14.2,6.316 -34.8,8.965 -47,8.965 -87.5,0 -127.6,-60.656 -127.6,-117.629 0,-34.273 12.1,-60.133 30.6,-78.055 18.4,-17.941 44.3,-26.898 72.3,-26.898 30.5,0 70.1,14.754 88,53.801 -0.5,4.734 -5.2,8.437 -9.4,7.375 z m 129.2,145.57 c 30.5,0 40.6,-18.445 40.6,-33.231 0,-6.863 -1.6,-8.964 -3.2,-10.007 -4.2,-3.168 -15.8,-5.293 -54.8,-5.293 l -37.5,0 c -3.7,0 -3.7,1.582 -3.7,2.648 0.6,17.418 27.5,45.883 58.6,45.883 z m 71.7,-151.383 c -16.3,-20.547 -31.1,-25.836 -48.5,-25.836 -56.5,0 -87.6,45.36 -87.6,98.637 0,13.172 0.5,14.234 14.3,14.234 l 97.5,0 c 22.2,0 29.6,0.52 31.2,3.707 1,2.094 2.1,6.321 2.1,13.692 0,31.652 -29.6,62.785 -74.9,62.785 -63.3,0 -106.1,-54.348 -106.1,-119.211 0,-23.215 6.4,-48.008 22.2,-68.555 15.3,-20.062 42.2,-34.816 76.5,-34.816 27.4,0 65.4,13.187 82.8,49.047 -0.5,4.754 -4.2,7.918 -9.5,6.316 z m -1707.2,4.227 c 0,-8.438 -0.6,-16.336 -3.7,-19.52 -8.5,-8.437 -26.4,-14.758 -40.6,-14.758 -51.7,0 -78.6,45.368 -78.6,93.36 0,45.879 24.8,87.554 72.8,87.554 20.5,0 36.3,-11.066 44.3,-22.156 3.7,-5.269 5.8,-10.019 5.8,-20.562 l 0,-103.918 z m 77,-31.11 c -7.9,-2.644 -16.9,-5.285 -22.7,-5.285 -14.8,0 -15.3,19.52 -15.3,61.192 l 0,231.546 c 0,23.211 1,49.571 1.6,65.407 -1.1,2.109 -3.2,3.148 -5.3,3.148 -19,-10.008 -43.8,-17.918 -57,-22.148 -2.6,-1.582 -2.6,-8.965 0,-10.543 l 5.3,-3.168 c 15.8,-9.485 16.4,-12.653 16.4,-43.782 l 0,-79.64 c 0,-4.207 -0.6,-7.379 -3.2,-7.379 -5.8,2.105 -17.4,4.754 -35.4,4.754 -71.7,0 -127.6,-47.485 -127.6,-121.32 0,-55.379 39,-101.262 97.6,-101.262 25.3,0 43.2,8.437 66.5,24.25 l 2.1,0 c 1,-2.106 1,-8.442 1,-16.36 l 0,-8.957 c 0,-2.625 2.6,-4.211 5.8,-4.211 14.8,5.797 47.5,13.715 69.6,16.879 4.8,2.629 4.3,15.821 0.6,16.879 z m 1215.7,-9.496 -11.7,1.578 c -18.9,2.633 -20,7.918 -20,45.887 l 0,90.723 c 0,35.34 -17.9,65.41 -61.7,65.41 -26.9,0 -51.7,-13.195 -73.9,-26.899 -3.6,0 -5.7,2.625 -5.7,5.789 0,4.754 0,12.668 1,24.793 -1,2.653 -3.7,3.692 -5.8,3.692 -10.5,-7.899 -40.6,-21.625 -52.7,-25.836 -2.7,-1.586 -2.7,-7.383 -0.6,-9.504 l 4.8,-3.168 c 14.2,-9.496 14.2,-12.125 14.2,-32.691 l 0,-92.309 c 0,-37.969 -0.5,-43.254 -20,-45.887 l -11.1,-1.578 c -3.7,-2.648 -2.6,-11.613 1.1,-13.191 14.7,1.058 30.5,1.578 49.6,1.578 18.4,0 33.7,-0.52 47.9,-1.578 3.7,1.578 4.8,10.543 1.1,13.191 l -9.5,1.578 c -19,3.168 -20,7.918 -20,45.887 l 0,80.699 c 0,15.297 1,22.696 7.9,31.653 7.4,10.027 24.8,18.464 44.8,18.464 35.9,0 49.6,-22.168 49.6,-52.218 l 0,-78.598 c 0,-37.969 -0.6,-42.719 -20.1,-45.887 l -10,-1.578 c -3.7,-2.648 -2.6,-11.613 1.1,-13.191 14.2,1.058 30,1.578 49,1.578 18.5,0 33.8,-0.52 49.6,-1.578 3.7,1.578 4.7,10.543 1.1,13.191 z M 13892,341.254 c 30.5,0 40.6,-18.445 40.6,-33.231 0,-6.863 -1.6,-8.964 -3.2,-10.007 -4.2,-3.168 -15.8,-5.293 -54.8,-5.293 l -37.5,0 c -3.7,0 -3.7,1.582 -3.7,2.648 0.5,17.418 27.4,45.883 58.6,45.883 z m 71.7,-151.383 c -16.4,-20.547 -31.1,-25.836 -48.5,-25.836 -56.5,0 -87.6,45.36 -87.6,98.637 0,13.172 0.5,14.234 14.2,14.234 l 97.6,0 c 22.2,0 29.6,0.52 31.2,3.707 1,2.094 2.1,6.321 2.1,13.692 0,31.652 -29.6,62.785 -74.9,62.785 -63.3,0 -106.1,-54.348 -106.1,-119.211 0,-23.215 6.4,-48.008 22.2,-68.555 15.3,-20.062 42.2,-34.816 76.5,-34.816 27.4,0 65.4,13.187 82.8,49.047 -0.5,4.754 -4.2,7.918 -9.5,6.316 z m -1551.7,-36.379 -12.6,1.578 c -19,2.633 -20.1,7.918 -20.1,45.887 l 0,249.484 c 0,23.211 1.1,49.571 1.6,65.407 -1.1,2.109 -3.2,3.148 -5.3,3.148 -18.9,-10.008 -43.7,-17.918 -56.9,-22.148 -2.7,-1.582 -2.7,-8.965 0,-10.543 l 5.2,-3.168 c 15.9,-9.485 16.4,-12.653 16.4,-43.782 l 0,-238.398 c 0,-37.969 -0.5,-43.254 -20.1,-45.887 l -12.1,-1.578 c -3.7,-2.648 -2.6,-11.613 1.1,-13.191 15.8,1.058 31.6,1.578 50.6,1.578 18.5,0 33.8,-0.52 51.2,-1.578 3.7,1.578 4.7,10.543 1,13.191 z m -1190.9,40.606 c 0,-8.438 -0.5,-16.336 -3.7,-19.52 -8.4,-8.437 -26.3,-14.758 -40.6,-14.758 -51.7,0 -78.6,45.368 -78.6,93.36 0,45.879 24.8,87.554 72.8,87.554 20.6,0 36.4,-11.066 44.3,-22.156 3.7,-5.269 5.8,-10.019 5.8,-20.562 l 0,-103.918 z m 77,-31.11 c -7.9,-2.644 -16.9,-5.285 -22.6,-5.285 -14.8,0 -15.4,19.52 -15.4,61.192 l 0,231.546 c 0,23.211 1.1,49.571 1.6,65.407 -1,2.109 -3.1,3.148 -5.2,3.148 -19,-10.008 -43.8,-17.918 -57,-22.148 -2.6,-1.582 -2.6,-8.965 0,-10.543 l 5.3,-3.168 c 15.8,-9.485 16.3,-12.653 16.3,-43.782 l 0,-79.64 c 0,-4.207 -0.5,-7.379 -3.1,-7.379 -5.8,2.105 -17.5,4.754 -35.4,4.754 -71.7,0 -127.6,-47.485 -127.6,-121.32 0,-55.379 39,-101.262 97.6,-101.262 25.3,0 43.2,8.437 66.4,24.25 l 2.1,0 c 1.1,-2.106 1.1,-8.442 1.1,-16.36 l 0,-8.957 c 0,-2.625 2.6,-4.211 5.8,-4.211 14.7,5.797 47.5,13.715 69.6,16.879 4.7,2.629 4.2,15.821 0.5,16.879 z m -620.2,33.215 c 0,-11.062 -0.5,-18.441 -6.9,-24.773 -5.2,-5.289 -21.6,-13.192 -32.2,-13.192 -26.8,0 -33.2,22.676 -33.2,31.633 0,20.582 15.3,28.488 46.4,39.047 9.5,3.152 18.5,5.273 21.7,5.273 3.1,0 5.2,-1.062 5.2,-6.859 l -1,-31.129 z m 82.3,-31.629 c -1.6,0 -4.3,-2.125 -6.9,-3.687 -3.2,-1.606 -7.9,-3.184 -13.2,-3.184 -20.6,0 -25.3,21.625 -24.3,45.899 l 3.2,91.769 c 1.6,39.551 -16.9,61.719 -54.8,61.719 -38.5,0 -98.1,-37.465 -98.1,-64.891 0,-4.73 2.6,-7.375 7.4,-7.375 7.9,0 22.1,3.688 30,10.024 4.3,3.168 4.8,9.504 5.3,17.941 1.1,16.336 19,23.711 33.7,23.711 32.8,0 39.1,-26.359 38.5,-45.883 l -0.5,-24.254 c -0.5,-7.918 -1,-12.648 -8.9,-15.293 l -62.8,-22.672 c -33.8,-12.148 -43.8,-24.277 -43.8,-44.843 0,-14.774 6.4,-27.957 16.4,-36.922 8.9,-7.918 21.6,-12.125 36.9,-12.125 14.8,0 26.4,6.851 38,13.187 10.5,5.797 16.8,10.543 20.5,10.543 3.2,0 6.3,-4.226 8.5,-7.394 8.9,-11.59 21.6,-16.336 34.2,-16.336 25.9,0 44.4,20.562 44.4,23.195 0,3.703 -1.6,6.871 -3.7,6.871 z m 862.8,133.961 -64.9,0 c -14.7,0 -15.3,0.524 -11.1,12.653 l 33.3,91.789 c 5.8,15.812 11.1,28.476 12.6,31.105 l 1.1,0 c 3.2,-6.332 7.9,-20.562 12.1,-33.234 l 28.5,-85.953 c 4.8,-14.254 3.7,-16.36 -11.6,-16.36 z m 150.3,-145.043 -14.2,1.578 c -22.7,2.633 -29.5,10.543 -44.8,55.907 l -72.3,212.039 c -7.9,23.195 -16.4,47.468 -23.2,70.664 -1.1,3.707 -4.7,4.746 -7.9,4.746 -5.8,-6.852 -14.8,-16.328 -27.4,-20.039 1.5,-8.438 -1.6,-18.461 -9,-37.446 l -53.8,-142.406 c -22.2,-59.074 -36.9,-93.347 -46.4,-117.621 -7.4,-18.984 -19,-24.781 -31.7,-25.844 l -17.4,-1.578 c -3.1,-2.648 -2.1,-11.094 1.1,-13.191 14.2,0.523 33.2,1.578 50.6,1.578 24.8,-0.52 41.2,-0.52 54.9,-1.578 4.7,2.097 4.7,10.543 1,13.191 l -17.4,1.578 c -12.6,1.063 -15.3,4.211 -15.3,10.543 0,5.817 3.7,20.047 11.6,43.782 l 18.5,55.382 c 3.7,11.067 6.8,12.649 20,12.649 l 79.7,0 c 15.8,0 17.9,-1.582 21.6,-13.168 l 23.2,-71.742 c 4.2,-12.649 6.9,-22.145 6.9,-27.942 0,-5.293 -7.4,-8.441 -18.5,-9.504 l -15.3,-1.578 c -3.7,-2.648 -3.2,-11.094 1,-13.191 15.3,0.523 35.4,1.578 60.7,1.578 23.8,0 42.2,-0.52 63.8,-1.578 2.7,2.097 3.7,10.543 0,13.191 z m -749.9,0 -11.7,1.578 c -18.9,2.633 -20,7.918 -20,45.887 l 0,90.723 c 0,35.34 -17.9,65.41 -61.7,65.41 -26.9,0 -51.7,-13.195 -73.9,-26.899 -3.6,0 -5.8,2.625 -5.8,5.789 0,4.754 0,12.668 1.1,24.793 -1.1,2.653 -3.7,3.692 -5.8,3.692 -10.6,-7.899 -40.6,-21.625 -52.7,-25.836 -2.7,-1.586 -2.7,-7.383 -0.6,-9.504 l 4.8,-3.168 c 14.2,-9.496 14.2,-12.125 14.2,-32.691 l 0,-92.309 c 0,-37.969 -0.5,-43.254 -20,-45.887 l -11.1,-1.578 c -3.7,-2.648 -2.6,-11.613 1.1,-13.191 14.7,1.058 30.5,1.578 49.5,1.578 18.5,0 33.8,-0.52 48,-1.578 3.7,1.578 4.8,10.543 1.1,13.191 l -9.5,1.578 c -19,3.168 -20.1,7.918 -20.1,45.887 l 0,80.699 c 0,15.297 1.1,22.696 8,31.653 7.3,10.027 24.8,18.464 44.8,18.464 35.9,0 49.6,-22.168 49.6,-52.218 l 0,-78.598 c 0,-37.969 -0.6,-42.719 -20.1,-45.887 l -10,-1.578 c -3.7,-2.648 -2.6,-11.613 1.1,-13.191 14.2,1.058 30,1.578 49,1.578 18.5,0 33.8,-0.52 49.6,-1.578 3.7,1.578 4.7,10.543 1.1,13.191 z m 1655,187.762 c 30.5,0 40.6,-18.445 40.6,-33.231 0,-6.863 -1.6,-8.964 -3.2,-10.007 -4.2,-3.168 -15.8,-5.293 -54.8,-5.293 l -37.5,0 c -3.7,0 -3.7,1.582 -3.7,2.648 0.6,17.418 27.4,45.883 58.6,45.883 z m 71.7,-151.383 c -16.3,-20.547 -31.1,-25.836 -48.5,-25.836 -56.4,0 -87.6,45.36 -87.6,98.637 0,13.172 0.6,14.234 14.3,14.234 l 97.5,0 c 22.2,0 29.6,0.52 31.2,3.707 1,2.094 2.1,6.321 2.1,13.692 0,31.652 -29.6,62.785 -74.9,62.785 -63.3,0 -106,-54.348 -106,-119.211 0,-23.215 6.3,-48.008 22.1,-68.555 15.3,-20.062 42.2,-34.816 76.5,-34.816 27.4,0 65.4,13.187 82.8,49.047 -0.5,4.754 -4.2,7.918 -9.5,6.316 z m -204.1,-36.379 -11.1,1.578 c -19,2.633 -20,7.918 -20,45.887 l 0,94.949 c 0,21.614 1,46.934 2.1,65.391 -0.5,2.129 -2.7,3.168 -5.3,3.168 -12.1,-7.899 -42.2,-21.625 -54.3,-25.836 -2.7,-1.586 -2.7,-7.383 -0.5,-9.504 l 4.7,-3.168 c 14.2,-9.496 14.2,-12.125 14.2,-32.691 l 0,-92.309 c 0,-37.969 -0.5,-43.254 -20,-45.887 l -11,-1.578 c -3.8,-2.648 -2.7,-11.613 1,-13.191 14.8,1.058 30.6,1.578 49.6,1.578 18.4,0 33.7,-0.52 49.6,-1.578 3.6,1.578 4.7,10.543 1,13.191 z m -81.2,309.598 c 0,-14.231 10.5,-25.84 26.9,-25.84 14.2,0 27.4,8.438 27.4,26.902 0,14.77 -10,26.903 -25.9,26.903 -15.3,0 -28.4,-10.543 -28.4,-27.965 z M 10293.9,221 c -25.3,0 -48,24.277 -48,61.707 0,35.871 19,59.07 44.3,59.07 32.2,0 47,-30.05 47,-65.933 0,-32.172 -14.8,-54.844 -43.3,-54.844 z m -34.8,-101.789 c 7.4,4.734 28.5,5.793 45.4,5.793 l 17.9,0 c 38,0 60.1,-13.711 60.1,-45.8868 0,-30.0664 -31.1,-56.4453 -78,-56.4453 -48,0 -70.7,23.7539 -70.7,52.2226 0,20.043 12.7,36.3985 25.3,44.3165 z m 155.6,218.894 -42.7,0 c -11.6,0 -15.3,1.043 -32.2,8.446 -12.1,5.246 -30.6,10.539 -50.6,10.539 -46.9,0 -86,-34.281 -86,-79.664 0,-33.754 21.6,-54.324 39.6,-63.801 0,-2.648 -2.7,-6.875 -5.3,-10.023 -9,-9.504 -19,-18.461 -28,-24.274 -5.8,-4.211 -7.9,-6.316 -7.9,-8.957 0,-18.465 18,-36.41 38.5,-41.676 4.8,-3.172 0.6,-7.902 -4.2,-12.648 -12.1,-12.133 -26.9,-25.8634 -35.9,-35.3439 -3.7,-4.2109 -5.8,-11.082 -5.8,-19.5273 0,-26.3555 22.7,-61.1758 87.6,-61.1758 68.5,0 131.3,42.1914 131.3,99.6875 0,52.7575 -44.3,58.0155 -73.8,58.0155 -23.2,0 -44.9,-1.57 -62.8,-1.57 -24.8,0 -36.9,10.008 -36.9,22.152 0,15.293 16.9,25.317 23.2,29.008 6.3,-0.543 13.7,-1.586 23.2,-1.586 67,0 88.6,47.473 88.6,83.867 0,8.961 0,17.926 -1,26.887 l 37.9,0 c 8,1.059 9,18.996 3.2,21.644 z m 1749.5,-186.199 c -11.1,0 -27.5,3.692 -38,11.602 -10.6,8.445 -15.9,14.777 -15.9,31.656 l 0,90.703 c 0,17.422 1.6,25.321 6.4,31.129 5.8,6.34 22.2,14.777 44.8,14.777 47.5,0 71.2,-42.722 71.2,-84.933 0,-54.844 -25.3,-94.934 -68.5,-94.934 z m 23.7,205.184 c -33.8,0 -67,-21.633 -73.9,-24.793 -3.7,0 -4.7,3.16 -4.7,6.851 0,6.856 1,14.774 2.1,24.278 -1.1,2.625 -3.2,3.664 -6.3,3.664 -13.8,-10 -38.5,-22.668 -52.2,-28.461 -2.7,-1.586 -2.7,-7.383 -0.6,-9.504 l 4.8,-3.168 c 14.2,-9.496 14.2,-12.125 14.2,-32.691 l 0,-226.8129 c 0,-37.9648 -0.5,-43.2422 -20,-45.8672 L 12040.2,19 c -3.7,-2.6445 -2.6,-11.62109 1.1,-13.20312 14.7,1.05468 30.5,1.58203 49.5,1.58203 18.5,0 33.8,-0.52735 59.1,-1.58203 3.7,1.58203 4.8,10.55862 1,13.20312 l -20.5,2.6289 c -19,2.6289 -20.1,7.3945 -20.1,44.8242 l 0,55.3869 c 0,11.082 2.7,13.723 7.4,14.773 4.8,-1.05 19.6,-2.105 29,-2.105 75,0 128.7,52.734 128.7,126.043 0,53.281 -34.2,96.539 -87.5,96.539 z m -291.1,-205.184 c -11.1,0 -27.5,3.692 -38,11.602 -10.6,8.445 -15.8,14.777 -15.8,31.656 l 0,90.703 c 0,17.422 1.5,25.321 6.3,31.129 5.8,6.34 22.1,14.777 44.8,14.777 47.5,0 71.2,-42.722 71.2,-84.933 0,-54.844 -25.3,-94.934 -68.5,-94.934 z m 23.7,205.184 c -33.7,0 -67,-21.633 -73.8,-24.793 -3.7,0 -4.8,3.16 -4.8,6.851 0,6.856 1.1,14.774 2.1,24.278 -1,2.625 -3.2,3.664 -6.3,3.664 -13.7,-10 -38.5,-22.668 -52.2,-28.461 -2.7,-1.586 -2.7,-7.383 -0.6,-9.504 l 4.8,-3.168 c 14.2,-9.496 14.2,-12.125 14.2,-32.691 l 0,-226.8129 c 0,-37.9648 -0.5,-43.2422 -20,-45.8672 L 11772.8,19 c -3.7,-2.6445 -2.6,-11.62109 1.1,-13.20312 14.7,1.05468 30.5,1.58203 49.5,1.58203 18.5,0 33.8,-0.52735 59.1,-1.58203 3.7,1.58203 4.8,10.55862 1.1,13.20312 l -20.6,2.6289 c -19,2.6289 -20,7.3945 -20,44.8242 l 0,55.3869 c 0,11.082 2.6,13.723 7.3,14.773 4.8,-1.05 19.6,-2.105 29,-2.105 74.9,0 128.7,52.734 128.7,126.043 0,53.281 -34.2,96.539 -87.5,96.539 z M 5309.31,142.402 c -46.42,0 -68.05,51.684 -68.05,99.688 0,58.015 25.87,91.25 60.67,91.25 50.09,0 68.05,-56.969 68.05,-101.809 0,-40.613 -14.26,-89.129 -60.67,-89.129 z m -1.07,206.754 c -62.24,0 -112.33,-47.465 -112.33,-113.918 0,-65.933 47.48,-108.668 108.13,-108.668 65.94,0 111.28,47.465 111.28,113.403 0,64.879 -48.01,109.183 -107.08,109.183 z m -4232.53,-182.34 -107.776,196.2 -172.77,0 L 938.82,90.9648 c 7.532,-13.6992 16.961,-26.2382 23.246,-32.0429 6.903,-6.4336 18.469,-15.6367 43.434,-2.1563 1.4,0.7617 16.07,8.711 31,16.7852 15.02,7.9961 29.73,15.8242 31.16,16.5898 25.07,13.3004 23.46,28.0624 22.48,37.4684 -0.95,9.086 -7.41,25.907 -14.43,39.207 z M 298.969,1352.91 c -6.582,-3.5 -13.492,-7.22 -20.66,-11.08 l 47.441,-89.85 c 62.148,-15.79 122.879,-39.27 185.41,-57.49 l -114.773,208.92 c -34.559,-19 -69.746,-36.74 -97.418,-50.5 z M 1239.5,1612.1 c 3.51,8.64 6.7,16.97 7.91,21.35 2.47,9 4.39,23.32 -16.03,34.5 -1.15,0.6 -13.13,7.18 -25.33,13.84 -12.12,6.8 -24.07,13.5 -25.2,14.15 -20.29,11.38 -31.33,2.12 -37.56,-4.78 -3.14,-3.47 -8.69,-11.54 -14.18,-19.82 21.84,-9.88 42.24,-20.14 59.42,-29.86 16.58,-8.75 33.63,-18.48 50.97,-29.38 z m 2277.6,-1130.022 -97.04,0 c -21.1,0 -39.03,0.52 -61.2,1.578 -3.15,-1.578 -4.21,-11.082 -1.04,-13.183 l 8.45,-1.067 c 30.59,-3.687 31.62,-11.062 31.62,-66.453 l 0,-189.887 c 0,-55.363 -1.03,-62.226 -31.62,-65.933 l -13.19,-1.578 c -3.17,-3.153 -2.11,-11.59 1.04,-13.172 24.8,1.062 42.74,1.582 65.94,1.582 21.1,0 39.03,-0.52 70.15,-1.582 3.17,1.582 4.21,11.07 1.04,13.172 l -17.93,1.578 c -31.12,2.652 -32.16,10.57 -32.16,65.933 l 0,73.329 c 0,13.71 1.57,14.23 17.4,14.23 l 35.86,0 c 20.04,0 33.23,-0.52 40.63,-2.625 10,-3.168 14.77,-10.543 16.87,-20.051 l 5.28,-20.562 c 3.7,-3.168 11.59,-3.168 13.69,0 0,12.125 -2.1,32.176 -2.1,51.156 0,19.523 2.1,40.613 2.1,53.285 -2.1,3.145 -11.06,3.145 -13.69,0 l -4.75,-21.113 c -3.17,-13.711 -7.4,-16.356 -13.18,-18.461 -6.35,-2.106 -23.21,-3.168 -44.85,-3.168 l -35.86,0 c -15.83,0 -17.4,0 -17.4,14.254 l 0,111.293 c 0,20.027 0,21.086 15.83,21.086 l 32.16,0 c 22.17,0 39.56,-0.524 51.15,-3.164 26.38,-7.379 32.7,-26.364 36.93,-50.114 3.7,-3.152 11.09,-1.57 12.66,1.582 -1.07,20.043 -1.57,45.36 -1.57,69.633 -6.88,-1.578 -37.46,-1.578 -71.22,-1.578 z M 4583.05,186.184 c 0,-8.442 -0.5,-16.356 -3.67,-19.52 -8.45,-8.441 -26.38,-14.773 -40.61,-14.773 -51.71,0 -78.59,45.359 -78.59,93.371 0,45.883 24.77,87.535 72.78,87.535 20.58,0 36.38,-11.067 44.31,-22.149 3.68,-5.273 5.78,-10.023 5.78,-20.566 l 0,-103.898 z m 77.03,-31.133 c -7.91,-2.625 -16.89,-5.266 -22.7,-5.266 -14.76,0 -15.29,19.52 -15.29,61.176 l 0,231.543 c 0,23.215 1.07,49.59 1.6,65.414 -1.07,2.105 -3.17,3.16 -5.28,3.16 -19,-10.015 -43.77,-17.937 -56.96,-22.144 -2.64,-1.586 -2.64,-8.985 0,-10.543 l 5.27,-3.172 c 15.83,-9.5 16.33,-12.664 16.33,-43.778 l 0,-79.64 c 0,-4.227 -0.5,-7.399 -3.16,-7.399 -5.78,2.121 -17.4,4.754 -35.34,4.754 -71.72,0 -127.64,-47.465 -127.64,-121.316 0,-55.383 39.05,-101.27 97.59,-101.27 25.31,0 43.25,8.438 66.45,24.27 l 2.1,0 c 1.07,-2.117 1.07,-8.438 1.07,-16.352 l 0,-8.961 c 0,-2.644 2.64,-4.226 5.81,-4.226 14.76,5.812 47.45,13.707 69.62,16.875 4.74,2.648 4.21,15.82 0.53,16.875 z M 301.148,166.816 c -7.035,-13.3 -13.507,-30.121 -14.453,-39.207 -0.976,-9.406 -2.582,-24.168 22.493,-37.4684 1.421,-0.7656 16.121,-8.5937 31.144,-16.5898 14.914,-8.0742 29.625,-16.0235 30.984,-16.7852 25,-13.4804 36.52,-4.2773 43.426,2.1563 6.317,5.8047 15.754,18.3437 23.27,32.0429 l 143.652,272.0512 -172.738,0 -107.778,-196.2 z M 1097.83,1340.51 c -20.56,9.45 -39.76,19.4 -57.65,29.51 -17.94,9.48 -38.2,21.49 -58.875,34.97 L 867.422,1197.68 c 62.195,18.72 122.777,41.95 184.968,56.79 l 45.44,86.04 z m -207.514,169.17 c 40.961,-40.72 112.114,-88.6 162.624,-115.37 49.86,-28.09 110.16,-55.43 183.72,-73.86 13.5,-3.59 35.4,-5.06 54.68,30.19 2.19,4.03 47.07,86.08 49.24,90.12 19.27,35.24 6.16,52.88 -4.08,62.33 -55.23,51.93 -110.84,87.92 -161.41,114.7 -49.82,28.07 -128.54,62.1 -184.934,74.55 -13.523,3.56 -35.441,5.06 -54.707,-30.17 -2.199,-4.04 -47.027,-86.12 -49.254,-90.14 -19.242,-35.22 -6.168,-52.88 4.121,-62.35 z M 4385.28,145.555 l -11.59,1.578 c -18.99,2.652 -20.03,7.918 -20.03,45.906 l 0,90.707 c 0,35.34 -17.96,65.41 -61.74,65.41 -26.88,0 -51.69,-13.191 -73.83,-26.902 -3.7,0 -5.8,2.648 -5.8,5.812 0,4.731 0,12.649 1.06,24.778 -1.06,2.644 -3.71,3.691 -5.81,3.691 -10.55,-7.902 -40.6,-21.609 -52.73,-25.844 -2.63,-1.578 -2.63,-7.375 -0.53,-9.48 l 4.74,-3.164 c 14.23,-9.504 14.23,-12.149 14.23,-32.715 l 0,-92.293 c 0,-37.988 -0.5,-43.254 -20.04,-45.906 l -11.05,-1.578 c -3.71,-2.625 -2.67,-11.59 1.04,-13.172 14.76,1.062 30.59,1.582 49.58,1.582 18.46,0 33.76,-0.52 47.99,-1.582 3.7,1.582 4.74,10.547 1.06,13.172 l -9.48,1.578 c -19,3.187 -20.06,7.918 -20.06,45.906 l 0,80.684 c 0,15.297 1.06,22.691 7.91,31.652 7.38,10.023 24.8,18.461 44.84,18.461 35.86,0 49.58,-22.145 49.58,-52.219 l 0,-78.578 c 0,-37.988 -0.53,-42.719 -20.06,-45.906 l -10.02,-1.578 c -3.68,-2.625 -2.64,-11.59 1.07,-13.172 14.23,1.062 30.05,1.582 49.05,1.582 18.46,0 33.75,-0.52 49.58,-1.582 3.68,1.582 4.74,10.547 1.04,13.172 z M 135.977,1615.27 c 8.359,3.98 16.418,7.82 23.98,11.48 24.797,12.84 55.852,28.72 87.977,43.97 -5.262,8.22 -10.543,16.19 -13.586,19.67 -6.11,6.99 -16.993,16.44 -37.477,5.4 -1.164,-0.61 -13.176,-7.08 -25.426,-13.67 -12.332,-6.49 -24.398,-12.81 -25.543,-13.42 -20.605,-10.79 -18.937,-25.11 -16.629,-34.18 1.047,-4.03 3.688,-11.38 6.704,-19.25 z M 4093.11,153.473 c -14.77,0 -16.36,15.832 -16.36,57.488 l 0,88.625 c 0,19.5 0.53,35.859 1.59,45.883 -0.53,2.105 -2.1,3.164 -4.74,3.687 -11.61,-5.273 -40.63,-8.965 -61.73,-9.5 -4.21,-2.105 -4.21,-9.484 -0.51,-11.59 l 6.85,-2.644 c 15.83,-6.336 19.5,-7.375 19.5,-41.676 l 0,-86.496 c 0,-16.355 -3.67,-24.254 -10.52,-30.586 -11.62,-10.027 -28.48,-15.824 -42.74,-15.824 -40.09,0 -49.05,24.262 -49.05,60.664 l 0,88.082 c 0,25.836 0.53,36.922 1.57,45.883 -0.53,2.105 -2.1,3.164 -5.27,3.687 -11.59,-4.211 -32.16,-8.965 -56.43,-9.5 -3.71,-1.57 -4.21,-8.965 -1.04,-11.59 l 6.31,-2.644 c 15.83,-6.856 15.83,-11.609 15.83,-44.84 l 0,-88.062 c 0,-42.735 17.4,-65.95 63.81,-65.95 31.12,0 56.96,17.418 72.79,27.426 3.17,0 4.74,-2.629 4.74,-7.383 l 0,-21.605 c 1.07,-2.125 3.71,-3.707 6.34,-3.707 17.94,10.019 48.52,15.289 69.09,19.523 4.24,2.106 3.71,12.649 0.54,15.293 -7.39,-1.582 -14.26,-2.644 -20.57,-2.644 z M 2435.33,333.34 c 30.59,0 40.61,-18.461 40.61,-33.235 0,-6.851 -1.58,-8.96 -3.16,-10.023 -4.22,-3.168 -15.83,-5.273 -54.86,-5.273 l -37.45,0 c -3.69,0 -3.69,1.586 -3.69,2.648 0.53,17.395 27.42,45.883 58.55,45.883 z m 71.73,-151.387 c -16.35,-20.566 -31.12,-25.836 -48.52,-25.836 -56.44,0 -87.56,45.363 -87.56,98.621 0,13.192 0.53,14.254 14.24,14.254 l 97.58,0 c 22.15,0 29.54,0.52 31.11,3.692 1.06,2.105 2.12,6.332 2.12,13.711 0,31.652 -29.54,62.761 -74.91,62.761 -63.28,0 -106.01,-54.324 -106.01,-119.211 0,-23.195 6.34,-47.992 22.16,-68.558 15.29,-20.039 42.19,-34.817 76.47,-34.817 27.44,0 65.41,13.188 82.81,49.067 -0.52,4.734 -4.21,7.902 -9.49,6.316 z M 1260.93,915.254 C 1208.45,808.039 1119.98,653.195 1048.58,633.23 c -38.3,-10.718 -62.295,5.239 -62.182,36.106 0.106,24.316 4.122,48.07 19.432,59.777 0,0 73.7,0.418 81.3,7.004 7.57,6.512 13.5,50.832 12.08,59.742 -1.38,8.856 -80.35,-7.222 -84.53,1.383 -4.19,8.578 20.32,58.867 15.95,67.406 -4.34,8.524 -63.997,-0.375 -63.997,-0.375 -7.707,-3.718 -14.731,-64.023 -22.242,-70.175 -7.582,-6.196 -63.961,2.211 -71.008,-4.075 -7.082,-6.289 -19.121,-54.96 -14.711,-61.136 4.461,-6.227 66.933,3.308 72.105,-3.313 6.032,-19.75 -12.882,-53.129 -36.058,-73.437 -16.832,-14.727 -35.379,-23.414 -58.461,-23.367 -35.199,0.222 -77.531,48.632 -90.903,124.773 -9.355,53.262 13.04,158.719 35.356,208.215 48.055,106.442 18.945,99.872 32.25,108.102 54.086,33.6 145.937,61.58 215.579,82.23 66.41,19.75 131.2,33.05 192.96,9.52 101.36,-38.62 78.04,-167.563 39.43,-246.356 z M 622.145,753.543 c -13.379,-76.141 -55.68,-124.551 -90.899,-124.773 -23.105,-0.047 -41.613,8.64 -58.461,23.367 -23.18,20.308 -42.101,53.687 -36.027,73.437 5.125,6.621 67.597,-2.914 72.055,3.313 4.425,6.176 -7.618,54.847 -14.684,61.136 -7.074,6.286 -63.445,-2.121 -71,4.075 -7.566,6.152 -14.551,66.457 -22.285,70.175 0,0 -59.66,8.899 -63.957,0.375 -4.379,-8.539 20.144,-58.828 15.914,-67.406 -4.16,-8.605 -83.153,7.473 -84.555,-1.383 -1.363,-8.91 4.547,-53.23 12.117,-59.742 7.582,-6.586 81.313,-7.004 81.313,-7.004 15.304,-11.707 19.351,-35.461 19.402,-59.777 0.141,-30.867 -23.855,-46.824 -62.156,-36.106 -71.387,19.965 -159.875,174.809 -212.395,282.024 -38.5622,78.793 -61.8473,207.736 39.45,246.356 61.773,23.53 126.57,10.23 193.019,-9.52 69.598,-20.65 161.434,-48.63 215.563,-82.23 13.289,-8.23 -15.797,-1.66 32.214,-108.102 22.348,-49.496 44.739,-154.953 35.372,-208.215 z m 575.485,485.627 c -148.89,11.97 -277.36,-67.65 -421.775,-93.14 -11.554,-2.05 -27.093,22.55 -41.125,36.59 67.008,50.49 57.907,149.46 -19.656,192.19 -5.351,6.15 -3.402,63.12 -0.328,65.66 6.317,5.27 55.762,-4.17 62.785,1.92 7.02,6.13 5.633,65.47 1.129,71.15 -4.476,5.67 -60.265,-0.41 -63.375,3.42 -3.172,3.82 1.528,57.19 -3.711,61.4 -3.797,3.03 -19.242,3.33 -27.824,3.27 -8.594,0.06 -24.094,-0.24 -27.832,-3.27 -5.273,-4.21 -0.559,-57.58 -3.695,-61.4 -3.153,-3.83 -58.864,2.25 -63.391,-3.42 -4.492,-5.68 -5.875,-65.02 1.148,-71.15 7.004,-6.09 56.497,3.35 62.778,-1.92 3.066,-2.54 5.008,-59.51 -0.332,-65.66 -77.539,-42.73 -86.656,-141.7 -19.684,-192.19 -14.035,-14.04 -29.582,-38.64 -41.094,-36.59 -144.425,25.49 -272.906,105.11 -421.824,93.14 C 86.5313,1232.5 18.4531,1173.83 3.97266,1089.53 -22.125,937.797 86.8906,821.141 139.848,692.348 c 16.707,-40.633 31.375,-95.27 28.757,-142.282 0,0 432.618,0 509.305,-0.023 0,0 2.016,0 5.84,0 3.813,0 5.875,0 5.875,0 76.648,0.023 509.275,0.023 509.275,0.023 -2.65,47.012 12.05,101.649 28.79,142.282 52.91,128.793 161.9,245.449 135.83,397.182 -14.47,84.3 -82.55,142.97 -165.89,149.64 z M 209.563,1336 c 30.476,15.34 59.707,31.44 84.07,44.35 58.418,29.1 153.676,77.63 193.844,113.55 11.867,10.64 27.648,29.79 7.429,69.19 -1.136,2.2 -13,25.34 -25.086,48.91 -11.89,23.66 -23.562,46.89 -24.668,49.11 -19.882,39.6 -44.668,38.14 -60.222,34.83 -52.696,-11.21 -148.121,-59.44 -206.094,-89.42 -24.797,-12.06 -55.074,-26.16 -85.4024,-41.68 l -93.242194,-191.21 0.03125,0 -0.03125,-0.04 L 209.563,1336 Z m 2634.517,-853.922 -97.04,0 c -21.1,0 -39.03,0.52 -61.2,1.578 -3.17,-1.578 -4.21,-11.082 -1.04,-13.183 l 8.42,-1.067 c 30.59,-3.687 31.66,-11.062 31.66,-66.453 l 0,-189.887 c 0,-55.363 -1.07,-62.226 -31.66,-65.933 l -13.19,-1.578 c -3.14,-3.153 -2.1,-11.59 1.07,-13.172 24.78,1.062 42.71,1.582 65.94,1.582 21.1,0 39.01,-0.52 70.13,-1.582 3.17,1.582 4.23,11.07 1.06,13.172 l -17.93,1.578 c -31.12,2.652 -32.16,10.57 -32.16,65.933 l 0,73.329 c 0,13.71 1.57,14.23 17.4,14.23 l 35.86,0 c 20.04,0 33.23,-0.52 40.61,-2.625 10.02,-3.168 14.76,-10.543 16.89,-20.051 l 5.25,-20.562 c 3.7,-3.168 11.62,-3.168 13.72,0 0,12.125 -2.1,32.176 -2.1,51.156 0,19.523 2.1,40.613 2.1,53.285 -2.1,3.145 -11.08,3.145 -13.72,0 l -4.74,-21.113 c -3.15,-13.711 -7.38,-16.356 -13.19,-18.461 -6.32,-2.106 -23.18,-3.168 -44.82,-3.168 l -35.86,0 c -15.83,0 -17.4,0 -17.4,14.254 l 0,111.293 c 0,20.027 0,21.086 15.8,21.086 l 32.19,0 c 22.14,0 39.57,-0.524 51.16,-3.164 26.37,-7.379 32.69,-26.364 36.92,-50.114 3.68,-3.152 11.06,-1.57 12.66,1.582 -1.07,20.043 -1.6,45.36 -1.6,69.633 -6.85,-1.578 -37.43,-1.578 -71.19,-1.578 z m 882.99,-339.676 c -46.41,0 -68.04,51.684 -68.04,99.688 0,58.015 25.84,91.25 60.64,91.25 50.12,0 68.04,-56.969 68.04,-101.809 0,-40.613 -14.22,-89.129 -60.64,-89.129 z m -1.06,206.754 c -62.24,0 -112.33,-47.465 -112.33,-113.918 0,-65.933 47.45,-108.668 108.12,-108.668 65.91,0 111.29,47.465 111.29,113.403 0,64.879 -48.01,109.183 -107.08,109.183 z m -3568.99,40.907 1053.46,0 0,89.492 -1053.46,0 0,-89.492 z m 3013.04,-236.59 c -14.76,0 -16.36,15.832 -16.36,57.488 l 0,88.625 c 0,19.5 0.54,35.859 1.6,45.883 -0.53,2.105 -2.1,3.164 -4.77,3.687 -11.59,-5.273 -40.6,-8.965 -61.7,-9.5 -4.21,-2.105 -4.21,-9.484 -0.51,-11.59 l 6.85,-2.644 c 15.82,-6.336 19.5,-7.375 19.5,-41.676 l 0,-86.496 c 0,-16.355 -3.68,-24.254 -10.55,-30.586 -11.59,-10.027 -28.48,-15.824 -42.71,-15.824 -40.07,0 -49.05,24.262 -49.05,60.664 l 0,88.082 c 0,25.836 0.53,36.922 1.57,45.883 -0.53,2.105 -2.1,3.164 -5.27,3.687 -11.59,-4.211 -32.16,-8.965 -56.44,-9.5 -3.7,-1.57 -4.2,-8.965 -1.04,-11.59 l 6.32,-2.644 c 15.83,-6.856 15.83,-11.609 15.83,-44.84 l 0,-88.062 c 0,-42.735 17.39,-65.95 63.81,-65.95 31.12,0 56.96,17.418 72.79,27.426 3.17,0 4.74,-2.629 4.74,-7.383 l 0,-21.605 c 1.07,-2.125 3.71,-3.707 6.34,-3.707 17.93,10.019 48.52,15.289 69.09,19.523 4.24,2.106 3.7,12.649 0.53,15.293 -7.38,-1.582 -14.25,-2.644 -20.57,-2.644 z M 2030.28,496.828 c -7.91,-13.707 -12.66,-14.75 -41.14,-14.75 l -213.61,0 c -24.26,0 -41.67,-0.543 -44.83,16.336 -1.58,1.582 -8.44,1.063 -10.02,0 -3.7,-21.086 -11.6,-54.844 -20.04,-78.578 2.1,-4.231 9.48,-6.859 13.7,-3.688 5.8,13.168 11.08,24.774 23.74,36.379 13.19,12.133 42.19,13.192 64.87,13.192 l 29.01,0 c 15.83,0 15.83,-0.524 15.83,-16.883 l 0,-235.77 c 0,-55.363 -2.64,-63.281 -32.7,-65.933 l -19,-1.578 c -4.21,-2.625 -3.16,-11.59 0,-13.172 33.76,1.062 52.23,1.582 73.32,1.582 21.11,0 39.03,-0.52 69.1,-1.582 3.16,1.582 4.22,11.07 1.05,13.172 l -16.88,1.578 c -30.59,3.187 -31.64,10.57 -31.64,65.933 l 0,234.715 c 0,17.414 -0.52,17.938 15.29,17.938 l 37.45,0 c 29.01,0 49.05,-4.211 61.18,-13.192 7.92,-5.789 11.6,-25.316 13.19,-38.504 2.64,-3.152 11.61,-3.152 13.71,1.063 -1.58,15.82 2.12,58.547 7.92,80.18 -1.06,2.109 -6.86,2.629 -9.5,1.562 z m 3106.56,-40.605 c 0,14.769 -10.01,26.898 -25.84,26.898 -15.29,0 -28.48,-10.547 -28.48,-27.945 0,-14.254 10.55,-25.86 26.91,-25.86 14.23,0 27.41,8.442 27.41,26.907 z m -2830.72,-310.668 -14.25,1.578 c -18.99,2.129 -20.04,7.918 -20.04,45.906 l 0,88.082 c 0,36.926 -17.93,68.035 -68.04,68.035 -26.9,0 -52.21,-12.648 -71.21,-27.426 -1.58,1.051 -2.1,5.274 -2.1,10.024 l 0,110.75 c 0,23.215 1.05,49.59 1.58,65.414 -1.06,2.105 -3.16,3.16 -5.28,3.16 -18.98,-10.015 -43.77,-17.937 -56.96,-22.144 -2.63,-1.586 -2.63,-8.985 0,-10.543 l 5.27,-3.172 c 15.83,-9.5 16.36,-12.664 16.36,-43.778 l 0,-238.402 c 0,-37.988 -0.53,-43.777 -20.05,-45.906 l -13.19,-1.578 c -3.69,-2.625 -2.64,-11.59 1.06,-13.172 16.87,1.062 32.7,1.582 51.69,1.582 18.46,0 33.76,-0.52 49.58,-1.582 3.69,1.582 4.74,11.07 1.06,13.172 l -11.08,1.578 c -18.99,2.652 -20.04,7.918 -20.04,45.906 l 0,88.602 c 0,18.464 1.58,21.105 11.07,29.007 9.49,7.918 23.21,14.254 41.15,14.254 33.75,0 50.1,-22.691 50.1,-56.445 l 0,-75.418 c 0,-37.988 -0.52,-42.719 -20.04,-45.906 l -10.55,-1.578 c -3.69,-2.625 -2.64,-11.59 1.05,-13.172 14.25,1.062 30.07,1.582 49.05,1.582 18.47,0 33.76,-0.52 52.75,-1.582 3.69,1.582 4.74,10.547 1.06,13.172 z m 2492.14,42.734 c 0,-11.082 -0.54,-18.461 -6.85,-24.797 -5.28,-5.269 -21.66,-13.172 -32.19,-13.172 -26.91,0 -33.22,22.676 -33.22,31.633 0,20.57 15.29,28.488 46.41,39.035 9.49,3.164 18.44,5.293 21.61,5.293 3.17,0 5.28,-1.07 5.28,-6.883 l -1.04,-31.109 z m 82.27,-31.652 c -1.57,0 -4.21,-2.102 -6.85,-3.692 -3.16,-1.578 -7.93,-3.16 -13.18,-3.16 -20.57,0 -25.31,21.625 -24.27,45.887 l 3.16,91.785 c 1.58,39.547 -16.89,61.699 -54.85,61.699 -38.5,0 -98.11,-37.445 -98.11,-64.867 0,-4.754 2.64,-7.394 7.38,-7.394 7.92,0 22.17,3.687 30.08,10.019 4.22,3.168 4.75,9.5 5.25,17.938 1.07,16.359 19,23.738 33.76,23.738 32.72,0 39.03,-26.379 38.53,-45.883 l -0.56,-24.277 c -0.51,-7.903 -1.04,-12.649 -8.95,-15.274 l -62.78,-22.691 c -33.73,-12.129 -43.77,-24.274 -43.77,-44.828 0,-14.77 6.34,-27.957 16.36,-36.942 8.98,-7.894 21.61,-12.125 36.93,-12.125 14.75,0 26.35,6.875 37.96,13.188 10.55,5.797 16.9,10.562 20.57,10.562 3.17,0 6.32,-4.226 8.45,-7.39 8.95,-11.61 21.63,-16.36 34.29,-16.36 25.82,0 44.28,20.563 44.28,23.215 0,3.688 -1.57,6.852 -3.68,6.852 z m 283.22,-11.082 -11.08,1.578 c -18.99,2.652 -20.03,7.918 -20.03,45.906 l 0,94.938 c 0,21.625 1.04,46.949 2.1,65.41 -0.53,2.101 -2.64,3.148 -5.28,3.148 -12.12,-7.902 -42.2,-21.609 -54.32,-25.844 -2.64,-1.578 -2.64,-7.375 -0.53,-9.48 l 4.74,-3.164 c 14.25,-9.504 14.25,-12.149 14.25,-32.715 l 0,-92.293 c 0,-37.988 -0.53,-43.254 -20.06,-45.906 l -11.06,-1.578 c -3.7,-2.625 -2.64,-11.59 1.04,-13.172 14.79,1.062 30.62,1.582 49.59,1.582 18.46,0 33.75,-0.52 49.58,-1.582 3.68,1.582 4.74,10.547 1.06,13.172 z m -188.82,174.074 59.61,0 c 4.74,3.152 5.8,17.398 -0.54,22.148 l -58.54,0 c -8.98,0 -9.51,0.524 -9.51,10.024 l 0,23.73 c -2.1,3.692 -8.41,3.692 -11.08,2.629 -5.28,-10.543 -15.3,-24.773 -22.14,-31.109 -5.25,-4.75 -18.46,-11.606 -33.73,-16.36 -2.13,-3.168 -1.6,-8.961 1.57,-11.062 l 14.76,0 c 10.55,0 11.08,-1.063 11.08,-15.297 l 0,-120.793 c 0,-31.648 9.49,-56.969 54.86,-56.969 26.89,0 45.88,13.188 55.37,24.27 1.06,3.156 -1.07,8.965 -5.28,8.965 -1.57,0 -8.44,-5.809 -13.18,-7.379 -4.22,-1.586 -8.96,-2.641 -14.23,-2.641 -34.82,0 -38.5,27.957 -38.5,58.551 l 0,98.625 c 0,11.086 0.5,12.668 9.48,12.668 z M 9834.55,437.25 c 14.23,0 27.41,8.438 27.41,26.902 0,14.77 -10.01,26.903 -25.84,26.903 -15.29,0 -28.48,-10.543 -28.48,-27.965 0,-14.231 10.55,-25.84 26.91,-25.84 z m 2587.05,700.1 c -39,0 -83.9,6.02 -96.9,13.01 -4,2.98 -6,5.98 -6,10.99 l 0,272.79 c 0,4.97 3,7.97 7,9.97 9,2 37,5 62.9,5 94,0 151.9,-60.94 151.9,-166.88 0,-64.94 -23,-109.91 -53,-129.89 -21,-13.98 -44.9,-14.99 -65.9,-14.99 z m 121.9,-158.866 c 50,-63.945 81.9,-104.906 119.9,-124.886 22,-11.993 43.9,-16.981 93.9,-16.981 l 55,0 c 16,0 21,1.973 21,6.973 0,3 -3,7.004 -8,7.004 -5,0 -14,0 -31,3.004 -22,2.98 -51,10.996 -97.9,58.945 -51,52.961 -111.9,129.887 -183.9,219.837 81.9,69.93 107.9,130.87 107.9,193.82 0,58.96 -38.9,99.93 -60.9,115.91 -46,31.96 -107.9,36.96 -163.9,36.96 -26.9,0 -100.9,-1.99 -109.9,-1.99 -5,0 -63.9,1.99 -103.9,1.99 -10,0 -14,-1.99 -14,-6.99 0,-2.99 4,-6.99 7,-6.99 8,0 23,-1 30,-1.98 29,-4.01 34,-18.02 36,-46.98 1.9,-26.96 1.9,-50.94 1.9,-182.85 l 0,-149.88 c 0,-81.93 0,-148.865 -4.9,-183.837 -4,-25 -6,-40.961 -23,-44.969 -8,-2.028 -19,-4 -27,-4 -5,0 -7,-4.004 -7,-7.004 0,-5 5,-6.973 14,-6.973 27,0 85.9,2.969 86.9,2.969 4,0 60,-2.969 107.9,-2.969 10,0 14,2.969 14,6.973 0,3 -1,7.004 -7,7.004 -8,0 -27,1.972 -38.9,4 -27,4.008 -32,19.969 -35,44.969 -4,34.972 -4,100.907 -4,182.847 l 0,19.97 c 0,4.99 2,7 6,7 l 111.9,-2.01 c 6,0 8,-0.99 12,-4.99 19,-22.96 57.9,-77.93 94.9,-123.896 z M 2353.84,874.563 c 9.98,33.972 21.98,120.902 21.98,127.897 0,8.01 -2,15 -6.99,15 -5.99,0 -8,-4.02 -9.99,-15 -3,-17.972 -15.99,-61.933 -36.98,-83.913 -39.97,-40.969 -98.91,-49.973 -173.85,-49.973 -213.83,0 -360.7,174.856 -360.7,365.706 0,101.92 16.98,190.85 89.92,260.78 34.97,33.98 96.91,72.97 229.81,72.97 87.93,0 164.87,-27 199.85,-56.98 25.97,-21.98 41.95,-62.94 41.95,-101.91 0,-14 1,-20.97 8,-20.97 6,0 8,5.99 8.99,20.97 1,14.99 1,69.93 3,102.92 2,35.96 4.99,47.95 4.99,55.97 0,5.97 -2,9.96 -12.99,10.96 -31.97,2.01 -63.95,8.01 -101.92,14.99 -48.96,9 -104.91,11.99 -144.87,11.99 -153.89,0 -244.8,-46.95 -304.76,-106.89 -88.93,-88.96 -111.9,-205.86 -111.9,-272.79 0,-94.93 23.98,-208.83 120.9,-295.755 78.93,-70.933 179.84,-107.93 329.73,-107.93 63.95,0 139.88,7.012 179.85,22.989 17.99,8.004 19.98,10.008 25.98,28.969 z m 9103.76,-17.985 c 5,17.985 12,75.945 12,81.949 0,5.985 -1,12.996 -6,12.996 -5,0 -7,-3.011 -9,-12.996 -5,-33.992 -17,-48.968 -39.9,-58.968 -23,-8.973 -65,-8.973 -88,-8.973 -86.9,0 -102.9,10.969 -104.9,67.941 -1,16.981 0,115.893 0,144.873 l 0,70.94 c 0,3 1,5.99 6,5.99 15,0 108.9,-0.98 132.9,-3.99 34,-4 42,-14 44.9,-25.99 4,-10.98 4,-19.98 4,-27.97 0,-4.98 2,-7.98 6,-7.98 6.1,0 8,9.01 8,15.97 0,6.01 2,37.97 4,54.95 2,27.98 7,41.99 7,46.97 0,5 -2,7.01 -5,7.01 -3,0 -7,-5 -13,-10.99 -9,-9 -21.9,-10 -42.9,-11.99 -20,-2.02 -135.9,-2.02 -146.9,-2.02 -5,0 -5,3.02 -5,9.01 l 0,230.83 c 0,5.98 1,8.97 5,8.97 10,0 111.9,-1 126.9,-2.99 48,-5.98 57,-12.02 62.9,-26 4,-9.98 5.1,-23.96 5.1,-29.95 0,-7.01 1.9,-11.01 6.9,-11.01 4,0 7,5 8,9.01 2,9.97 4,47.96 5,55.94 2,23.98 7,33.97 7,39.96 0,4.02 -1,7.99 -4,7.99 -4,0 -8,-2.99 -12,-3.97 -7,-1.01 -23,-4.02 -39.9,-5.01 -20,-1 -203.9,0 -209.9,0 -5,0 -61.9,1.99 -101.9,1.99 -10,0 -14,-1.99 -14,-6.99 0,-2.99 4,-6.99 7,-6.99 8,0 23,-1 30,-1.98 29,-4.01 34,-18.02 36,-46.98 1.9,-26.96 1.9,-50.94 1.9,-182.85 l 0,-149.88 c 0,-81.93 0,-148.865 -4.9,-183.837 -4,-25 -6,-41.993 -23,-44.969 -8,-0.996 -19,-4 -27,-4 -5,0 -7,-4.004 -7,-7.004 0,-5 5,-6.973 14,-6.973 14,0 34,0.985 51,1.973 18.9,0.996 36,0.996 37.9,0.996 13,0 36,0 73,-1.984 36,-0.985 86.9,-3.012 152.8,-3.012 34,0 43,0 49,21.988 z M 2572.52,1182.31 c 0,184.87 105.91,276.79 252.8,276.79 138.89,0 262.79,-106.94 262.79,-310.76 0,-245.793 -158.88,-287.75 -237.82,-287.75 -158.85,0 -277.77,123.898 -277.77,321.72 z m 605.51,-9.99 c 0,197.87 -149.87,318.74 -347.73,318.74 -242.8,0 -348.7,-194.82 -348.7,-331.71 0,-152.87 102.91,-333.737 343.72,-333.737 211.82,0 352.71,156.871 352.71,346.707 z M 10109.9,836.617 c 10,0 14,2.969 14,6.973 0,3 -2,7.004 -7,7.004 -8,0 -26.9,1.972 -39.9,4 -26.1,4.008 -29,19.969 -32,44.969 -4,34.972 -4,101.907 -4,183.837 l 0,149.88 c 0,131.91 0,155.89 1,182.85 2,29.98 6.9,41.97 31,46.98 9.9,1.98 15.9,1.98 21.9,1.98 3,0 7,4 7,6.99 0,5 -4,6.99 -13.9,6.99 -27,0 -84,-1.99 -88,-1.99 -4.98,0 -59.94,1.99 -88.93,1.99 -9.99,0 -13.99,-1.99 -13.99,-6.99 0,-2.99 3.01,-6.99 7.01,-6.99 5.97,0 16.97,-1 26.99,-3 18.97,-3.99 25.95,-17 27.95,-45.96 2,-26.96 2,-50.94 2,-182.85 l 0,-149.88 c 0,-81.93 -0.99,-148.865 -4.96,-183.837 -3.01,-25 -6.02,-40.961 -22.99,-44.969 -7.99,-2.028 -19.03,-4 -27.02,-4 -4.98,0 -6.98,-4.004 -6.98,-7.004 0,-5 5.01,-6.973 13.99,-6.973 26.99,0 81.95,2.969 86.93,2.969 4,0 61,-2.969 109.9,-2.969 z m 334.7,13.977 c -8,0 -28,1 -44,5.008 -24,5.972 -32,26.98 -34,96.929 l -9.9,400.669 c 26.9,-30 125.9,-133.9 227.8,-240.82 92.9,-96.9 219.8,-221.825 228.8,-229.798 49,-44.98 57.9,-51.969 66.9,-51.969 6,0 7,5.008 7,60.942 l 2,497.615 c 0,50.95 2,67.92 31,73.94 10,1.98 17,1.98 21,1.98 6,0 10,5 10,7.98 0,5 -7,6 -16,6 -36,0 -65,-1.99 -75,-1.99 -10,0 -51.9,1.99 -91.9,1.99 -10,0 -17,-1 -17,-6 0,-2.98 1,-7.98 7,-7.98 7,0 27,-1 43,-4 27,-5 32,-23.98 32.9,-78.92 l 9.1,-425.666 c -27,27.984 -121,128.916 -207.9,218.816 -135.9,139.9 -263.7,275.76 -277.8,289.77 -9,8.98 -23.9,25.97 -33.9,25.97 -7,0 -12,-8.97 -12,-42.95 l 0,-486.606 c 0,-76.938 -3,-99.93 -25,-105.902 -13,-4.008 -28.9,-5.008 -35.9,-5.008 -4.1,0 -7.1,-2.981 -7.1,-7.004 0,-5.988 5.1,-6.973 14.1,-6.973 39.9,0 76.9,2.969 84.9,2.969 7.9,0 42.9,-2.969 92.9,-2.969 10,0 16,1.973 16,6.973 0,4.023 -3,7.004 -7,7.004 z m -4730.2,14 c -15.99,0 -52.97,0.992 -76.95,11.988 -26.96,12.977 -26.96,22.981 -29.97,63.945 -0.99,12.973 -0.99,114.883 -0.99,180.853 l 0,46.95 c 0,3.99 2,5.99 4.99,5.99 13.98,0 57.95,0 68.95,-2 20.97,-3.99 48.95,-2.98 78.95,-21.96 68.92,-43.98 83.9,-116.9 83.9,-154.895 0,-108.906 -70.93,-130.871 -128.88,-130.871 z m -107.91,574.516 c 0,5 2.99,7 10.98,9 13.99,2.97 34.96,4 44.98,4 87.92,0 123.89,-71.96 123.89,-136.89 0,-40.97 -14.98,-69.95 -33.97,-90.95 -18.01,-19.96 -36.98,-21.96 -85.93,-21.96 -32.98,0 -48.97,2.99 -53.98,3.99 -3.97,1.01 -5.97,3.01 -5.97,9 l 0,223.81 z m 318.74,-415.66 c 0,95.92 -87.92,156.88 -154.88,176.86 44.97,39.96 88.94,81.92 88.94,148.87 0,44.98 -38,129.89 -184.86,129.89 -40.97,0 -81.93,-1.99 -102.92,-1.99 -4.98,0 -61.95,1.99 -101.91,1.99 -9.99,0 -13.99,-1.99 -13.99,-6.99 0,-2.99 4,-4.99 6.98,-4.99 8.02,0 23,-1 29.98,-2 28.98,-4 33.97,-20 35.99,-48.96 1.97,-26.96 1.97,-50.94 1.97,-182.85 l 0,-149.88 c 0,-81.93 0,-148.865 -4.98,-183.837 -4,-25 -6,-43.961 -23,-46.997 -7.96,-0.972 -18.96,-3.972 -26.96,-3.972 -4.98,0 -7,-2.004 -7,-5.004 0,-5 5,-6.973 13.98,-6.973 14.02,0 34.99,0.985 52.97,1.973 17.99,0 33.97,0.996 35.97,0.996 4,0 28.96,-0.996 56.96,-1.984 27.98,-1.981 59.95,-3.012 75.94,-3.012 149.87,0 220.82,93.953 220.82,188.86 z M 9207.81,916.52 c 97.94,-82.918 222.82,-90.907 289.78,-90.907 50.94,0 130.87,8.977 186.82,37.957 11,6.008 12.02,7.016 12.02,45.973 l 0,94.927 c 0,35.97 0,60.94 0.98,87.93 2,29.98 9.01,42.96 32.96,46.96 10.02,1.99 16.02,1.99 21.99,1.99 3,0 7,4 7,6.99 0,6 -4,7.02 -13.99,7.02 -26.96,0 -81.92,-2.02 -85.95,-2.02 -4.96,0 -63.94,2.02 -103.91,2.02 -9.96,0 -13.96,-1.02 -13.96,-7.02 0,-2.99 4,-6.99 6.98,-6.99 7.99,0 22.97,-0.99 29.97,-1.99 36,-6.98 38,-16.98 38,-85.94 l 0,-146.865 c 0,-16 -7.01,-19.996 -18.01,-26.004 -23,-12.977 -63.95,-15.957 -94.91,-15.957 -80.94,0 -154.9,23.976 -224.82,88.906 -30.98,28.984 -92.93,114.93 -92.93,234.8 0,98.93 35.97,174.86 86.94,213.85 66.93,50.95 130.87,54.94 183.84,54.94 113.9,0 180.85,-33.96 202.81,-65.95 14.01,-19.96 19.03,-44.96 20.01,-55.94 0,-8 1.01,-13 6,-13 5.99,0 9.98,4 9.98,17.98 0,84.95 4.99,107.93 4.99,119.91 0,4 -1.97,7.99 -10.98,7.99 -21.98,0 -52.94,4.99 -70.95,9 -16.97,4 -78.92,13.98 -134.87,13.98 -66.98,0 -154.88,-5.99 -233.83,-53.95 -77.93,-46.95 -146.86,-142.9 -146.86,-278.77 0,-105.9 50.95,-196.836 104.9,-241.82 z m -2473.44,191.86 -177.87,0 c -2.98,0 -4,1.99 -2.98,6 l 81.93,232.83 c 5,12.98 9.99,12.98 14.97,0 l 86.94,-232.83 c 1.01,-4.01 1.01,-6 -2.99,-6 z m 275.76,-264.79 c 0,5.004 -5.99,7.004 -11,7.004 -8.95,0 -21.98,1 -34.95,5.008 -18.98,5.972 -42.96,16.976 -74.95,92.91 -53.93,128.888 -194.82,479.588 -210.81,515.578 -9.01,18.98 -12.01,30.97 -20.99,30.97 -6,0 -10,-5 -21,-32.97 L 6429.62,930.535 c -16.99,-42.945 -33.97,-72.965 -73.93,-77.969 -7.01,-0.972 -19.99,-1.972 -25.98,-1.972 -4.03,0 -8.02,-2.981 -8.02,-7.004 0,-5 6.02,-6.973 17,-6.973 35.97,0 79.93,2.969 88.91,2.969 10.01,0 57.97,-2.969 78.97,-2.969 7.97,0 12.97,1.973 12.97,6.973 0,4.023 -1.99,7.004 -9,7.004 l -7.97,0 c -15,0 -30,5.984 -30,22.984 0,14.992 5.01,35.965 13,56.957 l 49.96,135.885 c 2,4.99 4.98,6.98 9.01,6.98 l 202.81,0 c 4.98,0 5.99,-1 7.99,-4.97 l 78.95,-194.852 c 5.96,-13.976 -2.99,-21.012 -8,-22.984 -3.99,-2 -5.99,-2 -5.99,-6 0,-5.008 13.99,-5.008 30.96,-6.004 60.96,-1.973 125.89,-1.973 138.92,-1.973 9.96,0 19.95,1.973 19.95,6.973 z m -953.12,621.5 c 5.99,0 16.97,-1 26.96,-3 19,-3.99 25.98,-17 27.98,-45.96 2,-26.96 2,-50.94 2,-182.85 l 0,-149.88 c 0,-81.93 -1.01,-148.865 -4.99,-183.837 -2.98,-25 -5.99,-40.961 -22.96,-44.969 -8.02,-2.028 -19.02,-4 -26.99,-4 -5.01,0 -7.01,-4.004 -7.01,-7.004 0,-5 5.01,-6.973 14.02,-6.973 26.96,0 81.93,2.969 86.91,2.969 3.97,0 60.96,-2.969 109.87,-2.969 10.02,0 14.02,2.969 14.02,6.973 0,3 -2,7.004 -7.01,7.004 -7.99,0 -26.93,1.972 -39.96,4 -25.98,4.008 -28.99,19.969 -31.97,44.969 -3.97,34.972 -3.97,101.907 -3.97,183.837 l 0,149.88 c 0,131.91 0,155.89 0.98,182.85 2,29.98 7.01,41.97 30.96,46.98 10.02,1.98 16.01,1.98 21.98,1.98 3.01,0 7.01,4 7.01,6.99 0,5 -4,6.99 -13.99,6.99 -26.96,0 -83.95,-1.99 -87.92,-1.99 -4.98,0 -59.95,1.99 -88.91,1.99 -10.02,0 -14.02,-1.99 -14.02,-6.99 0,-2.99 3.02,-6.99 7.01,-6.99 z M 14105.9,916.52 c 97.9,-82.918 222.8,-90.907 289.7,-90.907 51,0 130.9,8.977 186.8,37.957 11.1,6.008 12.1,7.016 12.1,45.973 l 0,94.927 c 0,35.97 0,60.94 1,87.93 2,29.98 9,42.96 32.9,46.96 10,1.99 16,1.99 22,1.99 3,0 7,4 7,6.99 0,6 -4,7.02 -14,7.02 -27,0 -81.9,-2.02 -85.9,-2.02 -5,0 -64,2.02 -103.9,2.02 -10,0 -14,-1.02 -14,-7.02 0,-2.99 4,-6.99 7,-6.99 8,0 23,-0.99 29.9,-1.99 36,-6.98 38,-16.98 38,-85.94 l 0,-146.865 c 0,-16 -7,-19.996 -17.9,-26.004 -23,-12.977 -64,-15.957 -95,-15.957 -80.9,0 -154.8,23.976 -224.8,88.906 -31,28.984 -92.9,114.93 -92.9,234.8 0,98.93 36,174.86 86.9,213.85 66.9,50.95 130.9,54.94 183.9,54.94 113.9,0 180.8,-33.96 202.8,-65.95 14,-19.96 19,-44.96 20,-55.94 0,-8 1,-13 6,-13 6,0 10,4 10,17.98 0,84.95 5,107.93 5,119.91 0,4 -2,7.99 -11,7.99 -22,0 -53,4.99 -71,9 -17,4 -78.9,13.98 -134.9,13.98 -66.9,0 -154.9,-5.99 -233.8,-53.95 -77.9,-46.95 -146.8,-142.9 -146.8,-278.77 0,-105.9 50.9,-196.836 104.9,-241.82 z M 5356.84,836.617 c 10.02,0 18.01,2.969 18.01,7.977 0,4 -3.01,6 -7,6 -9.01,0 -31.97,0 -56.97,8.008 -35.94,11.984 -41.96,57.918 -44.95,87.925 l -59.97,521.553 c -2,15.99 -6.98,22.98 -12.98,22.98 -5.99,0 -9.99,-5.99 -13.98,-13.98 L 4923.21,950.492 4657.42,1478.07 c -4.98,10 -11.99,12.99 -17.99,12.99 -4.98,0 -8.97,-5.99 -9.96,-14.98 L 4565.5,921.527 c -4,-31.968 -4.98,-62.925 -33.97,-67.929 -12.98,-2.004 -18.97,-3.004 -25.98,-3.004 -5.01,0 -9.01,-2.981 -9.01,-6 0,-6.004 6.03,-7.977 15.01,-7.977 23.97,0 65.94,2.969 73.96,2.969 6.98,0 48.94,-2.969 81.9,-2.969 9.99,0 15.99,1.973 15.99,7.977 0,3.019 -4,6 -6.98,6 -6,0 -19,1 -33.97,5.008 -12.98,3 -21,10.976 -21,23.957 0,14.015 0,29.984 1.01,42.984 l 33.97,383.687 4,0 c 15,-34.98 85.93,-177.87 111.9,-231.81 21.98,-45.97 79.94,-154.881 102.93,-196.842 16.97,-30.988 21.98,-38.988 29.97,-38.988 8,0 12.98,8 30.96,44.98 l 211.85,433.62 2,0 41.96,-429.6 c 2,-16.016 0.98,-28.988 -4,-30.02 -4,-0.992 -5.99,-3.972 -5.99,-6.976 0,-4.004 3.99,-7.004 24.96,-8.989 32,-3.015 129.92,-4.988 149.87,-4.988 z m 6657.26,114.906 c -5.1,0 -7.1,-3.011 -9.1,-12.996 -5,-33.992 -16.9,-48.968 -39.9,-58.968 -23,-8.973 -65,-8.973 -87.9,-8.973 -87,0 -103,10.969 -105,67.941 -1,16.981 0,115.893 0,144.873 l 0,70.94 c 0,3 1,5.99 6,5.99 15,0 108.9,-0.98 132.9,-3.99 34,-4 42,-14 45,-25.99 4,-10.98 4,-19.98 4,-27.97 0,-4.98 2,-7.98 5.9,-7.98 6.1,0 8.1,9.01 8.1,15.97 0,6.01 2,37.97 4,54.95 2,27.98 7,41.99 7,46.97 0,5 -2,7.01 -5,7.01 -3.1,0 -7,-5 -13,-10.99 -9,-9 -22,-10 -43,-11.99 -20,-2.02 -135.9,-2.02 -146.9,-2.02 -5,0 -5,3.02 -5,9.01 l 0,230.83 c 0,5.98 1,8.97 5,8.97 10,0 111.9,-1 126.9,-2.99 48,-5.98 57,-12.02 63,-26 4,-9.98 5,-23.96 5,-29.95 0,-7.01 2,-11.01 7,-11.01 4,0 7,5 8,9.01 1.9,9.97 3.9,47.96 4.9,55.94 2,23.98 7.1,33.97 7.1,39.96 0,4.02 -1.1,7.99 -4.1,7.99 -4,0 -7.9,-2.99 -11.9,-3.97 -7,-1.01 -23,-4.02 -40,-5.01 -20,-1 -203.8,0 -209.8,0 -5,0 -62,1.99 -102,1.99 -9.9,0 -13.9,-1.99 -13.9,-6.99 0,-2.99 4,-6.99 6.9,-6.99 8.1,0 23,-1 30,-1.98 29,-4.01 34,-18.02 36,-46.98 2,-26.96 2,-50.94 2,-182.85 l 0,-149.88 c 0,-81.93 0,-148.865 -5,-183.837 -4,-25 -6,-41.993 -23,-44.969 -8,-0.996 -19,-4 -27,-4 -4.9,0 -6.9,-4.004 -6.9,-7.004 0,-5 4.9,-6.973 13.9,-6.973 14,0 34,0.985 51,1.973 19,0.996 36,0.996 38,0.996 13,0 36,0 72.9,-1.984 36,-0.985 86.9,-3.012 152.9,-3.012 33.9,0 42.9,0 49,21.988 4.9,17.985 11.9,75.945 11.9,81.949 0,5.985 -0.9,12.996 -5.9,12.996 z m -4686.32,-305.281 19.18,0 0,1144.008 -19.18,0 0,-1144.008 z m 813.17,213.36 c 5,20.949 13.02,88.91 13.02,96.902 0,7.004 0,14.992 -6.02,14.992 -4.98,0 -7,-4 -9,-14.992 -6.96,-40.977 -18.97,-60.941 -44.95,-71.938 -25.98,-10.988 -69.94,-10.988 -95.92,-10.988 -97.91,0 -112.89,12.981 -115.9,81.93 -0.98,20.972 0,136.892 0,170.882 l 0,87.91 c 0,3.99 2,6.99 6.98,6.99 16.97,0 115.9,-1.99 142.92,-5 38.95,-4 47.93,-20.99 51.93,-34.96 3.99,-13 3.99,-22.99 3.99,-32.99 0,-4.97 2.03,-8.98 6.98,-8.98 7.01,0 7.01,11 7.01,18.98 0,6.98 2,43.97 4,63.95 3.01,32.99 8.02,49.97 8.02,55.97 0,5.99 -2,7.97 -5.01,7.97 -4,0 -8,-5 -15,-12.98 -8.98,-10 -22.97,-12 -46.95,-14 -22.99,-1.98 -145.87,-1.98 -158.87,-1.98 -5.01,0 -6,3.01 -6,9.98 l 0,275.77 c 0,7 2,10 6,10 11,0 119.89,-1 136.89,-3 53.95,-6.01 63.92,-18 70.93,-33.97 5,-11.98 5.99,-28.98 5.99,-35.98 0,-7.99 2,-12.98 7.99,-12.98 4.03,0 6.03,5.98 7.01,10.98 1.97,11.99 4,55.97 4.99,65.94 3,27.99 8.01,39.97 8.01,46.98 0,4.99 -1.01,8.99 -4.02,8.99 -4.98,0 -8.98,-4 -13.96,-5 -8.02,-2 -24.01,-3.99 -42.97,-5 -23.03,-1 -221.84,-1 -228.82,-1 l -40.95,2.01 c -22.01,1.01 -48.97,1.01 -71.94,1.01 -11.03,0 -16.01,-2.02 -16.01,-8.02 0,-3.97 3.99,-5.99 7.99,-5.99 9.01,0 25.98,-0.99 33.99,-2.99 32.97,-6.97 40.96,-22.98 42.96,-56.95 1.97,-31.99 1.97,-59.95 1.97,-215.82 l 0,-175.84 c 0,-95.95 0,-174.867 -5.01,-216.847 -3.97,-28.992 -8.95,-50.941 -28.93,-54.949 -9.01,-2.028 -21,-4 -30.01,-4 -5.96,0 -7.96,-2.981 -7.96,-6 0,-6.004 4.98,-7.977 15.98,-7.977 14.98,0 37.94,1.973 57.93,1.973 20.99,0.996 37.99,0.996 39.99,0.996 15,0 38.98,-0.996 77.93,-2.969 38.95,-0.996 93.92,-3.015 168.87,-3.015 38.95,0 46.97,0 53.93,26 z m 794.24,-28.989 c 5.97,0 6.98,5.008 6.98,60.942 l 2,497.615 c 0,50.95 2,67.92 30.96,73.94 9.99,1.98 17,1.98 21,1.98 5.99,0 9.99,5 9.99,7.98 0,5 -6.98,6 -15.99,6 -35.97,0 -64.95,-1.99 -74.92,-1.99 -9.99,0 -51.96,1.99 -91.92,1.99 -10.02,0 -17,-1 -17,-6 0,-2.98 1.01,-7.98 6.98,-7.98 7.01,0 26.99,-1 42.98,-4 26.99,-5 31.97,-23.98 32.98,-78.92 l 8.98,-425.666 c -26.96,27.984 -120.91,128.916 -207.85,218.816 -135.85,139.9 -263.74,275.76 -277.75,289.77 -8.98,8.98 -23.98,25.97 -33.98,25.97 -6.98,0 -11.99,-8.97 -11.99,-42.95 l 0,-486.606 c 0,-76.938 -3.01,-99.93 -24.99,-105.902 -12.97,-4.008 -28.96,-5.008 -35.97,-5.008 -3.97,0 -6.95,-2.981 -6.95,-7.004 0,-5.988 4.95,-6.973 13.96,-6.973 39.97,0 76.92,2.969 84.94,2.969 7.97,0 42.95,-2.969 92.93,-2.969 9.97,0 15.96,1.973 15.96,6.973 0,4.023 -2.98,7.004 -6.98,7.004 -7.99,0 -28,1 -43.96,5.008 -24.01,5.972 -31.97,26.98 -33.97,96.929 l -9.99,400.669 c 26.96,-30 125.89,-133.9 227.8,-240.82 92.94,-96.9 219.81,-221.825 228.82,-229.798 48.94,-44.98 57.95,-51.969 66.95,-51.969 z m -5534.47,8.973 c 25.98,0 55.95,-0.996 95.91,-1.984 40.96,-1.981 89.93,-3.012 152.86,-3.012 46.97,0 49.96,3.012 55.98,22.98 6.98,25.012 12.97,75.946 12.97,84.953 0,9 -1.99,12.985 -5.99,12.985 -5.01,0 -8,-5.016 -8.98,-10.996 -3.01,-16.996 -10.02,-34.969 -21,-47.949 -20.99,-24.989 -59.94,-25.977 -105.9,-25.977 -68.96,0 -102.93,5.996 -116.92,19.969 -15.98,15.008 -17.98,65.949 -17.98,190.855 l 0,151.87 c 0,131.91 0,155.89 1.01,182.85 2,29.98 6.98,42.97 32.96,47.96 9.99,1 22.97,2 28.96,2 3.01,0 7.01,3 7.01,5.99 0,5 -4.98,6.99 -13.99,6.99 -26.96,0 -92.91,-1.99 -96.9,-1.99 -5.01,0 -59.98,1.99 -99.94,1.99 -9.99,0 -13.99,-1.99 -13.99,-6.99 0,-2.99 4,-6.99 7.01,-6.99 7.99,0 22.96,-1 29.97,-1.98 28.96,-4.01 33.97,-18.02 35.97,-46.98 2,-26.96 2,-50.94 2,-182.85 l 0,-149.88 c 0,-81.93 0,-148.865 -4.99,-183.837 -4.02,-25 -6.02,-40.961 -22.99,-44.969 -7.99,-2.028 -18.99,-4 -26.99,-4 -4.98,0 -6.98,-4.004 -6.98,-7.004 0,-5 5.01,-6.973 13.99,-6.973 13.99,0 32.96,0.985 50.94,1.973 17,0.996 31.98,0.996 36,0.996 z m 9669.18,11.008 c -8,0 -26.9,1.972 -39.9,4 -26,4.008 -29,19.969 -32,44.969 -4,34.972 -4,101.907 -4,183.837 l 0,149.88 c 0,131.91 0,155.89 1,182.85 2,29.98 7,41.97 31,46.98 10,1.98 16,1.98 22,1.98 2.9,0 6.9,4 6.9,6.99 0,5 -4,6.99 -13.9,6.99 -27,0 -84,-1.99 -87.9,-1.99 -5.1,0 -60,1.99 -89,1.99 -10,0 -14,-1.99 -14,-6.99 0,-2.99 3,-6.99 7,-6.99 6,0 17,-1 27,-3 19,-3.99 26,-17 28,-45.96 2,-26.96 2,-50.94 2,-182.85 l 0,-149.88 c 0,-81.93 -1,-148.865 -5,-183.837 -3,-25 -6,-40.961 -23,-44.969 -8,-2.028 -19,-4 -27,-4 -5,0 -7,-4.004 -7,-7.004 0,-5 5,-6.973 14,-6.973 27,0 81.9,2.969 87,2.969 3.9,0 60.9,-2.969 109.8,-2.969 10,0 14,2.969 14,6.973 0,3 -2,7.004 -7,7.004 z m 770.4,40.961 1.9,497.615 c 0,50.95 2,67.92 31,73.94 10,1.98 17,1.98 21,1.98 6,0 10,5 10,7.98 0,5 -7,6 -16,6 -35.9,0 -64.9,-1.99 -74.9,-1.99 -10,0 -52,1.99 -91.9,1.99 -10,0 -17,-1 -17,-6 0,-2.98 0.9,-7.98 7,-7.98 7,0 27,-1 42.9,-4 27,-5 32,-23.98 33,-78.92 l 9,-425.666 c -27,27.984 -120.9,128.916 -207.9,218.816 -135.8,139.9 -263.7,275.76 -277.7,289.77 -9,8.98 -24,25.97 -34,25.97 -7,0 -12,-8.97 -12,-42.95 l 0,-486.606 c 0,-76.938 -3,-99.93 -24.9,-105.902 -13.1,-4.008 -29,-5.008 -36,-5.008 -4,0 -7,-2.981 -7,-7.004 0,-5.988 5,-6.973 14,-6.973 39.9,0 76.9,2.969 84.9,2.969 8,0 43,-2.969 92.9,-2.969 10,0 16,1.973 16,6.973 0,4.023 -3,7.004 -7,7.004 -8,0 -28,1 -43.9,5.008 -24,5.972 -32.1,26.98 -34,96.929 l -10,400.669 c 26.9,-30 125.9,-133.9 227.8,-240.82 92.9,-96.9 219.8,-221.825 228.8,-229.798 48.9,-44.98 58,-51.969 66.9,-51.969 6.1,0 7.1,5.008 7.1,60.942 z M 4432.76,1472.08 c 0,5 -4,6.99 -13.99,6.99 -25.98,0 -67.94,-1.99 -73.93,-1.99 -5.01,0 -55.98,1.99 -94.94,1.99 -9.99,0 -13.98,-1.99 -13.98,-6.99 0,-2.99 3.01,-6.99 7,-6.99 7.97,0 22.97,-1 29.98,-1.98 28.96,-4.01 33.97,-20 34.96,-46.98 1.01,-26.96 1.99,-50.94 1.99,-182.85 l 0,-106.89 c 0,-86.94 -9,-156.878 -49.96,-205.855 -29.97,-35.969 -81.93,-59.945 -135.88,-59.945 -49.96,0 -87.92,6.984 -130.9,45.965 -37.97,33.972 -64.95,84.91 -64.95,207.825 l 0,118.9 c 0,131.91 0,155.89 1.99,182.85 2,27.98 7.01,42.97 30,46.98 10.98,1.98 15.99,1.98 21.99,1.98 3.99,0 7.99,4 7.99,6.99 0,5 -5.01,6.99 -15,6.99 -25.98,0 -80.95,-1.99 -88.91,-1.99 -7.99,0 -60.96,1.99 -100.93,1.99 -10.02,0 -13.99,-1.99 -13.99,-6.99 0,-2.99 3.97,-6.99 6.99,-6.99 7.99,0 22.99,-1 29.97,-1.98 28.99,-4.01 33.97,-20 35.97,-46.98 2.02,-26.96 2.02,-50.94 2.02,-182.85 l 0,-124.9 c 0,-123.892 33.95,-182.853 76.92,-222.825 61.95,-57.942 153.87,-59.942 182.86,-59.942 51.95,0 119.9,7.004 183.84,61.977 69.97,59.937 81.93,162.85 81.93,254.75 l 0,90.94 c 0,131.91 -0.99,155.89 1.01,182.85 2,27.98 6.98,41.97 30.99,46.98 10.97,1.98 15.96,1.98 21.95,1.98 4.03,0 7.01,4 7.01,6.99"
         style="fill:#253b7d;fill-opacity:1;fill-rule:nonzero;stroke:none"
         id="path4154"
         inkscape:connector-curvature="0" /></g></g></svg>