<?xml version="1.0" encoding="UTF-8" standalone="no"?>
<!-- Created with Inkscape (http://www.inkscape.org/) -->

<svg
   xmlns:dc="http://purl.org/dc/elements/1.1/"
   xmlns:cc="http://creativecommons.org/ns#"
   xmlns:rdf="http://www.w3.org/1999/02/22-rdf-syntax-ns#"
   xmlns:svg="http://www.w3.org/2000/svg"
   xmlns="http://www.w3.org/2000/svg"
   xmlns:sodipodi="http://sodipodi.sourceforge.net/DTD/sodipodi-0.dtd"
   xmlns:inkscape="http://www.inkscape.org/namespaces/inkscape"
   id="svg2"
   version="1.1"
   inkscape:version="0.91 r13725"
   xml:space="preserve"
   width="500.00037"
   height="91.097"
   viewBox="0 0 500.00037 91.097"
   sodipodi:docname="shop.svg"><metadata
     id="metadata8"><rdf:RDF><cc:Work
         rdf:about=""><dc:format>image/svg+xml</dc:format><dc:type
           rdf:resource="http://purl.org/dc/dcmitype/StillImage" /><dc:title></dc:title></cc:Work></rdf:RDF></metadata><defs
     id="defs6"><clipPath
       clipPathUnits="userSpaceOnUse"
       id="clipPath16"><path
         d="M 0,500 500,500 500,0 0,0 0,500 Z"
         id="path18"
         inkscape:connector-curvature="0" /></clipPath></defs><sodipodi:namedview
     pagecolor="#ffffff"
     bordercolor="#666666"
     borderopacity="1"
     objecttolerance="10"
     gridtolerance="10"
     guidetolerance="10"
     inkscape:pageopacity="0"
     inkscape:pageshadow="2"
     inkscape:window-width="640"
     inkscape:window-height="480"
     id="namedview4"
     showgrid="false"
     fit-margin-top="14"
     fit-margin-left="0"
     fit-margin-right="0"
     fit-margin-bottom="14"
     inkscape:zoom="0.48799964"
     inkscape:cx="250.00018"
     inkscape:cy="45.548499"
     inkscape:window-x="0"
     inkscape:window-y="0"
     inkscape:window-maximized="0"
     inkscape:current-layer="g10" /><g
     id="g10"
     inkscape:groupmode="layer"
     inkscape:label="shopcom-seeklogo.com"
     transform="matrix(1.25,0,0,-1.25,-62.5,358.04875)"><g
       id="g12"><g
         id="g14"
         clip-path="url(#clipPath16)"><g
           id="g20"
           transform="translate(74.353,260.499)"><path
             d="m 0,0 c -0.911,6.099 -3.934,9.211 -9.071,9.336 -1.658,0 -3.024,-0.24 -4.095,-0.722 -1.132,-0.461 -2.002,-1.1 -2.609,-1.918 -1.256,-1.718 -1.863,-3.478 -1.82,-5.28 -0.043,-3.521 2.257,-6.119 6.897,-7.796 l 5.986,-2.294 c 7.395,-2.975 11.071,-7.439 11.029,-13.389 -0.06,-4.004 -1.46,-7.252 -4.198,-9.746 -2.739,-2.577 -6.411,-3.886 -11.015,-3.928 -4.361,0 -7.911,1.204 -10.649,3.613 -2.76,2.368 -4.362,5.992 -4.808,10.874 l 5.966,0 c 0.203,-2.661 1.078,-4.83 2.624,-6.507 1.526,-1.719 3.917,-2.578 7.172,-2.578 2.666,0.041 4.812,0.817 6.44,2.326 1.627,1.426 2.462,3.227 2.503,5.406 -0.041,1.887 -0.711,3.5 -2.009,4.841 -1.319,1.279 -3.104,2.326 -5.355,3.144 l -6.026,2.451 c -7.02,2.746 -10.529,7.209 -10.529,13.391 0.04,4.296 1.508,7.617 4.404,9.964 2.774,2.368 6.157,3.552 10.146,3.552 3.969,0 7.301,-1.205 9.994,-3.615 C 3.691,8.695 5.23,4.986 5.595,0 L 0,0 Z"
             style="fill:#6f6f71;fill-opacity:1;fill-rule:nonzero;stroke:none"
             id="path22"
             inkscape:connector-curvature="0" /></g><g
           id="g24"
           transform="translate(120.3657,274.4531)"><path
             d="m 0,0 5.966,0 0,-48.906 -5.966,0 0,22.131 -24.773,0 0,-22.131 -5.966,0 0,48.906 5.966,0 0,-20.998 24.773,0 L 0,0 Z"
             style="fill:#6f6f71;fill-opacity:1;fill-rule:nonzero;stroke:none"
             id="path26"
             inkscape:connector-curvature="0" /></g><g
           id="g28"
           transform="translate(142.0156,249.9844)"><path
             d="m 0,0 c 0.081,-5.873 2.021,-10.549 5.819,-14.031 3.656,-3.567 7.982,-5.37 12.979,-5.412 5.016,0.042 9.364,1.845 13.04,5.412 3.737,3.482 5.646,8.158 5.727,14.031 -0.081,5.893 -1.99,10.602 -5.727,14.126 -3.676,3.523 -8.024,5.306 -13.04,5.348 C 13.801,19.432 9.475,17.649 5.819,14.126 2.021,10.602 0.081,5.893 0,0 m -6.343,0 c 0,6.353 2.201,12.087 6.605,17.203 4.281,5.2 10.46,7.883 18.536,8.051 8.096,-0.168 14.306,-2.849 18.627,-8.046 4.282,-5.112 6.443,-10.843 6.484,-17.192 -0.041,-6.349 -2.202,-12.059 -6.484,-17.13 -4.321,-5.218 -10.531,-7.921 -18.627,-8.109 -8.076,0.188 -14.255,2.889 -18.536,8.104 C -4.142,-12.051 -6.343,-6.346 -6.343,0"
             style="fill:#6f6f71;fill-opacity:1;fill-rule:nonzero;stroke:none"
             id="path30"
             inkscape:connector-curvature="0" /></g><g
           id="g32"
           transform="translate(207.4614,247.6094)"><path
             d="M 0,0 C 7.44,0 11.201,3.562 11.282,10.689 11.201,17.814 7.44,21.398 0,21.44 l -5.885,0 L -5.885,0 0,0 Z m -11.851,26.844 13.089,0 c 5.073,-0.084 8.999,-1.729 11.78,-4.934 2.779,-3.185 4.19,-6.925 4.231,-11.221 C 17.208,6.499 15.797,2.812 13.018,-0.373 10.237,-3.642 6.311,-5.318 1.238,-5.4 l -7.123,0 0,-16.662 -5.966,0 0,48.906 z"
             style="fill:#6f6f71;fill-opacity:1;fill-rule:nonzero;stroke:none"
             id="path34"
             inkscape:connector-curvature="0" /></g><g
           id="g36"
           transform="translate(301.1396,264.4248)"><path
             d="m 0,0 c -3.493,3.314 -7.563,4.992 -12.213,5.034 -5.07,-0.042 -9.411,-1.846 -13.02,-5.412 -3.754,-3.565 -5.67,-8.252 -5.751,-14.062 0.081,-5.747 2.018,-10.383 5.813,-13.906 3.652,-3.649 7.975,-5.496 12.967,-5.538 5.195,0.042 9.405,1.783 12.633,5.223 l 3.804,-4.451 c -4.604,-4.222 -10.082,-6.405 -16.429,-6.551 -8.073,0.187 -14.249,2.891 -18.53,8.108 -4.401,5.072 -6.601,10.782 -6.601,17.131 0,6.349 2.2,12.079 6.601,17.192 4.281,5.196 10.457,7.878 18.53,8.046 C -5.522,10.688 -0.107,8.604 4.05,4.562 L 0,0 Z"
             style="fill:#6f6f71;fill-opacity:1;fill-rule:nonzero;stroke:none"
             id="path38"
             inkscape:connector-curvature="0" /></g><g
           id="g40"
           transform="translate(318.8262,249.9844)"><path
             d="m 0,0 c 0.081,-5.873 2.021,-10.549 5.818,-14.031 3.657,-3.567 7.983,-5.37 12.98,-5.412 5.016,0.042 9.363,1.845 13.04,5.412 3.737,3.482 5.646,8.158 5.727,14.031 -0.081,5.893 -1.99,10.602 -5.727,14.126 -3.677,3.523 -8.024,5.306 -13.04,5.348 C 13.801,19.432 9.475,17.649 5.818,14.126 2.021,10.602 0.081,5.893 0,0 m -6.344,0 c 0,6.353 2.202,12.087 6.606,17.203 4.281,5.2 10.46,7.883 18.536,8.051 8.097,-0.168 14.306,-2.849 18.628,-8.046 4.281,-5.112 6.441,-10.843 6.482,-17.192 -0.041,-6.349 -2.201,-12.059 -6.482,-17.13 -4.322,-5.218 -10.531,-7.921 -18.628,-8.109 -8.076,0.188 -14.255,2.889 -18.536,8.104 C -4.142,-12.051 -6.344,-6.346 -6.344,0"
             style="fill:#6f6f71;fill-opacity:1;fill-rule:nonzero;stroke:none"
             id="path42"
             inkscape:connector-curvature="0" /></g><g
           id="g44"
           transform="translate(417.4219,274.4531)"><path
             d="m 0,0 5.967,0 0,-48.906 -5.967,0 0,36.257 -0.121,0 -19.644,-36.759 -19.643,36.759 -0.121,0 0,-36.257 -5.967,0 0,48.906 5.967,0 19.764,-36.949 L 0,0 Z"
             style="fill:#6f6f71;fill-opacity:1;fill-rule:nonzero;stroke:none"
             id="path46"
             inkscape:connector-curvature="0" /></g><g
           id="g48"
           transform="translate(431.5469,263.0786)"><path
             d="m 0,0 0,9.378 -3.503,0 0,1.255 8.429,0 0,-1.255 -3.518,0 L 1.408,0 0,0 Z"
             style="fill:#6f6f71;fill-opacity:1;fill-rule:nonzero;stroke:none"
             id="path50"
             inkscape:connector-curvature="0" /></g><g
           id="g52"
           transform="translate(438.8623,263.0786)"><path
             d="m 0,0 0,10.633 2.118,0 L 5.13,3.104 C 5.362,2.403 5.531,1.878 5.638,1.53 5.759,1.917 5.947,2.485 6.204,3.235 l 3.041,7.398 1.893,0 0,-10.633 -1.357,0 0,8.899 L 6.196,0 4.927,0 1.356,9.052 1.356,0 0,0 Z"
             style="fill:#6f6f71;fill-opacity:1;fill-rule:nonzero;stroke:none"
             id="path54"
             inkscape:connector-curvature="0" /></g><g
           id="g56"
           transform="translate(253.916,250.4951)"><path
             d="m 0,0 c 0,-5.333 -4.323,-9.655 -9.655,-9.655 -5.333,0 -9.656,4.322 -9.656,9.655 0,5.333 4.323,9.655 9.656,9.655 C -4.323,9.655 0,5.333 0,0"
             style="fill:#327e98;fill-opacity:1;fill-rule:nonzero;stroke:none"
             id="path58"
             inkscape:connector-curvature="0" /></g></g></g></g></svg>