<?xml version="1.0" encoding="UTF-8" standalone="no"?>
<!-- Created with Inkscape (http://www.inkscape.org/) -->

<svg
   xmlns:dc="http://purl.org/dc/elements/1.1/"
   xmlns:cc="http://creativecommons.org/ns#"
   xmlns:rdf="http://www.w3.org/1999/02/22-rdf-syntax-ns#"
   xmlns:svg="http://www.w3.org/2000/svg"
   xmlns="http://www.w3.org/2000/svg"
   xmlns:sodipodi="http://sodipodi.sourceforge.net/DTD/sodipodi-0.dtd"
   xmlns:inkscape="http://www.inkscape.org/namespaces/inkscape"
   width="847.94989"
   height="171.3123"
   id="svg3058"
   version="1.1"
   inkscape:version="0.91 r13725"
   sodipodi:docname="ve_logo_plain.svg"
   inkscape:export-filename="/Users/matt/Desktop/ve_logo_small_color.png"
   inkscape:export-xdpi="153.15414"
   inkscape:export-ydpi="153.15414">
  <defs
     id="defs3060" />
  <sodipodi:namedview
     id="base"
     pagecolor="#ffffff"
     bordercolor="#666666"
     borderopacity="1.0"
     inkscape:pageopacity="0.0"
     inkscape:pageshadow="2"
     inkscape:zoom="0.81152344"
     inkscape:cx="244.06639"
     inkscape:cy="85.656303"
     inkscape:document-units="px"
     inkscape:current-layer="text3905"
     showgrid="true"
     fit-margin-top="0"
     fit-margin-left="0"
     fit-margin-right="0"
     fit-margin-bottom="0"
     units="px"
     inkscape:window-width="1080"
     inkscape:window-height="1872"
     inkscape:window-x="0"
     inkscape:window-y="0"
     inkscape:window-maximized="1"
     borderlayer="false"
     inkscape:showpageshadow="false"
     inkscape:snap-page="true"
     inkscape:snap-bbox="true"
     inkscape:bbox-nodes="false"
     inkscape:snap-nodes="true"
     inkscape:snap-grids="false"
     inkscape:snap-global="true"
     inkscape:bbox-paths="false"
     inkscape:snap-bbox-midpoints="true"
     inkscape:snap-object-midpoints="true"
     inkscape:snap-center="false"
     inkscape:object-nodes="true"
     inkscape:object-paths="true"
     inkscape:snap-midpoints="true">
    <inkscape:grid
       type="xygrid"
       id="grid3791"
       empspacing="4"
       visible="true"
       enabled="true"
       snapvisiblegridlinesonly="true"
       dotted="false"
       originx="-88.02507"
       originy="-42.343697" />
  </sodipodi:namedview>
  <metadata
     id="metadata3063">
    <rdf:RDF>
      <cc:Work
         rdf:about="">
        <dc:format>image/svg+xml</dc:format>
        <dc:type
           rdf:resource="http://purl.org/dc/dcmitype/StillImage" />
        <dc:title></dc:title>
      </cc:Work>
    </rdf:RDF>
  </metadata>
  <g
     inkscape:label="Layer 1"
     inkscape:groupmode="layer"
     id="layer1"
     transform="translate(-641.57861,-390.39822)">
    <g
       transform="translate(42.60307,-393.19685)"
       id="g3879"
       inkscape:export-filename="/Users/matt/Documents/Google Drive/veritaseum/materials/ve_logo_plain_color.png"
       inkscape:export-xdpi="153.15414"
       inkscape:export-ydpi="153.15414">
      <g
         id="g3881"
         inkscape:export-filename="/Users/matt/Documents/Google Drive/veritaseum/materials/ve_logo_small_color.png"
         inkscape:export-xdpi="153.15414"
         inkscape:export-ydpi="153.15414">
        <g
           style="font-style:normal;font-variant:normal;font-weight:normal;font-stretch:normal;font-size:28.58447838px;line-height:125%;font-family:'Century Schoolbook';-inkscape-font-specification:'Century Schoolbook';text-align:center;letter-spacing:0px;word-spacing:0px;writing-mode:lr-tb;text-anchor:middle;fill:#ff9933;fill-opacity:1;stroke:none"
           id="text3883">
          <path
             d="m 598.97554,785.13107 31.488,137.08799 35.52,0 31.488,-137.08799 -28.608,0 -20.352,101.37599 -0.576,0 -19.392,-101.37599 -29.568,0"
             style="font-weight:bold;font-stretch:condensed;font-size:191.99998474px;line-height:125%;font-family:'Helvetica Neue LT Std';-inkscape-font-specification:'Helvetica Neue LT Std Bold Condensed';fill:#ff9933"
             id="path3065"
             inkscape:connector-curvature="0" />
          <path
             d="m 777.55353,874.60306 0,-5.952 c 0,-31.67997 -6.91203,-52.416 -37.824,-52.416 -35.71196,0 -41.08799,25.72803 -41.08799,53.376 0,25.72797 1.53603,55.29599 39.93599,55.29599 24.95998,0 36.48,-13.44002 37.44,-37.43999 l -23.808,0 c -1.536,12.67198 -5.18401,19.392 -14.016,19.392 -9.79199,0 -13.056,-11.90401 -13.056,-24 l 0,-8.256 52.416,0 m -52.416,-15.744 0,-4.032 c 0,-9.59999 3.07201,-20.544 13.632,-20.544 10.94399,0 12.864,8.83202 13.44,24.576 l -27.072,0"
             style="font-weight:bold;font-stretch:condensed;font-size:191.99998474px;line-height:125%;font-family:'Helvetica Neue LT Std';-inkscape-font-specification:'Helvetica Neue LT Std Bold Condensed';fill:#ff9933"
             id="path3067"
             inkscape:connector-curvature="0" />
        </g>
        <g
           transform="matrix(3.5730599,0,0,-3.5730599,541.35679,1473.7365)"
           style="fill:none;stroke:#ff9933;stroke-width:1.67923295;stroke-linecap:round;stroke-linejoin:round;stroke-miterlimit:4;stroke-dasharray:none;stroke-opacity:1"
           id="g3887">
          <path
             style="color:#000000;display:inline;overflow:visible;visibility:visible;fill:none;stroke:#ff9933;stroke-width:1.67923295;stroke-linecap:round;stroke-linejoin:round;stroke-miterlimit:4;stroke-dasharray:none;stroke-dashoffset:0;stroke-opacity:1;marker:none;enable-background:accumulate"
             d="m 27.401657,148.00463 0,1.39936 c 0,0.6202 -0.499292,1.11949 -1.11949,1.11949 l -5.597441,0 c -0.620197,0 -1.11949,-0.49929 -1.11949,-1.11949 l 0,-2.23897 c 0,-0.6202 0.499293,-1.11949 1.11949,-1.11949 l 2.238976,0"
             id="path3889"
             inkscape:connector-curvature="0"
             sodipodi:nodetypes="cssssssc" />
          <path
             style="color:#000000;display:inline;overflow:visible;visibility:visible;fill:none;stroke:#ff9933;stroke-width:1.67923295;stroke-linecap:round;stroke-linejoin:round;stroke-miterlimit:4;stroke-dasharray:none;stroke-dashoffset:0;stroke-opacity:1;marker:none;enable-background:accumulate"
             d="m 32.439356,148.56438 1e-6,-1.39936 c 10e-7,-0.6202 -0.499292,-1.11949 -1.11949,-1.11949 l -5.597441,0 c -0.620197,0 -1.119489,0.49929 -1.11949,1.11949 l -2e-6,1.39936"
             id="path3891"
             inkscape:connector-curvature="0"
             sodipodi:nodetypes="cssssc" />
          <path
             style="color:#000000;display:inline;overflow:visible;visibility:visible;fill:none;stroke:#ff9933;stroke-width:1.67923295;stroke-linecap:round;stroke-linejoin:round;stroke-miterlimit:4;stroke-dasharray:none;stroke-dashoffset:0;stroke-opacity:1;marker:none;enable-background:accumulate"
             d="m 29.640633,148.00463 10e-7,1.39936 c 0,0.6202 0.499292,1.11949 1.11949,1.11949 l 5.597441,0 c 0.620197,0 1.11949,-0.49929 1.11949,-1.11949 l 0,-1.39936"
             id="path3893"
             inkscape:connector-curvature="0"
             sodipodi:nodetypes="cssssc" />
          <path
             sodipodi:nodetypes="cssssc"
             inkscape:connector-curvature="0"
             id="path3895"
             d="m 42.514754,148.56438 10e-7,-1.39936 c 10e-7,-0.6202 -0.499292,-1.11949 -1.11949,-1.11949 l -5.597441,0 c -0.620197,0 -1.119489,0.49929 -1.11949,1.11949 l -2e-6,1.39936"
             style="color:#000000;display:inline;overflow:visible;visibility:visible;fill:none;stroke:#ff9933;stroke-width:1.67923295;stroke-linecap:round;stroke-linejoin:round;stroke-miterlimit:4;stroke-dasharray:none;stroke-dashoffset:0;stroke-opacity:1;marker:none;enable-background:accumulate" />
          <path
             sodipodi:nodetypes="cssssssc"
             inkscape:connector-curvature="0"
             id="path3897"
             d="m 54.829124,148.56438 -10e-7,-1.39936 c 0,-0.6202 0.499292,-1.11949 1.11949,-1.11949 l 5.597441,0 c 0.620197,0 1.11949,0.49929 1.11949,1.11949 l 0,2.23897 c 0,0.6202 -0.499293,1.11949 -1.11949,1.11949 l -2.238975,0"
             style="color:#000000;display:inline;overflow:visible;visibility:visible;fill:none;stroke:#ff9933;stroke-width:1.67923295;stroke-linecap:round;stroke-linejoin:round;stroke-miterlimit:4;stroke-dasharray:none;stroke-dashoffset:0;stroke-opacity:1;marker:none;enable-background:accumulate" />
          <path
             sodipodi:nodetypes="cssssc"
             inkscape:connector-curvature="0"
             id="path3899"
             d="m 39.716025,148.00463 10e-7,1.39936 c 0,0.6202 0.499292,1.11949 1.11949,1.11949 l 5.597441,0 c 0.620197,0 1.11949,-0.49929 1.11949,-1.11949 l 0,-1.39936"
             style="color:#000000;display:inline;overflow:visible;visibility:visible;fill:none;stroke:#ff9933;stroke-width:1.67923295;stroke-linecap:round;stroke-linejoin:round;stroke-miterlimit:4;stroke-dasharray:none;stroke-dashoffset:0;stroke-opacity:1;marker:none;enable-background:accumulate" />
          <path
             style="color:#000000;display:inline;overflow:visible;visibility:visible;fill:none;stroke:#ff9933;stroke-width:1.67923295;stroke-linecap:round;stroke-linejoin:round;stroke-miterlimit:4;stroke-dasharray:none;stroke-dashoffset:0;stroke-opacity:1;marker:none;enable-background:accumulate"
             d="m 52.590146,148.56438 1e-6,-1.39936 c 10e-7,-0.6202 -0.499292,-1.11949 -1.11949,-1.11949 l -5.597441,0 c -0.620197,0 -1.119489,0.49929 -1.11949,1.11949 l -2e-6,1.39936"
             id="path3901"
             inkscape:connector-curvature="0"
             sodipodi:nodetypes="cssssc" />
          <path
             sodipodi:nodetypes="cssssc"
             inkscape:connector-curvature="0"
             id="path3903"
             d="m 57.627842,148.00463 10e-7,1.39936 c 1e-6,0.6202 -0.499292,1.11949 -1.11949,1.11949 l -5.597441,0 c -0.620197,0 -1.119489,-0.49929 -1.11949,-1.11949 l -2e-6,-1.39936"
             style="color:#000000;display:inline;overflow:visible;visibility:visible;fill:none;stroke:#ff9933;stroke-width:1.67923295;stroke-linecap:round;stroke-linejoin:round;stroke-miterlimit:4;stroke-dasharray:none;stroke-dashoffset:0;stroke-opacity:1;marker:none;enable-background:accumulate" />
        </g>
        <g
           style="font-style:normal;font-variant:normal;font-weight:normal;font-stretch:normal;font-size:10px;line-height:125%;font-family:'Century Schoolbook';-inkscape-font-specification:'Century Schoolbook';text-align:center;letter-spacing:0px;word-spacing:0px;writing-mode:lr-tb;text-anchor:middle;fill:#000000;fill-opacity:1;stroke:none"
           id="text3905">
          <path
             d="m 773.21652,942.79509 2.064,0 0,-8.256 2.952,0 0,-1.632 -7.968,0 0,1.632 2.952,0 0,8.256 m 16.152,0 1.92,0 0,-9.888 -2.856,0 -2.688,7.008 -2.688,-7.008 -2.856,0 0,9.888 1.92,0 0,-7.824 0.048,0 2.904,7.824 1.344,0 2.904,-7.824 0.048,0 0,7.824"
             style="font-weight:500;font-stretch:condensed;font-size:24px;line-height:125%;font-family:'Helvetica Neue LT Std';-inkscape-font-specification:'Helvetica Neue LT Std Medium Condensed';fill:#666666;fill-opacity:1;stroke:none"
             id="path3298"
             inkscape:connector-curvature="0" />
        </g>
      </g>
      <g
         id="text3911"
         style="font-style:normal;font-variant:normal;font-weight:normal;font-stretch:normal;font-size:28.58447838px;line-height:125%;font-family:'Century Schoolbook';-inkscape-font-specification:'Century Schoolbook';text-align:center;letter-spacing:0px;word-spacing:0px;writing-mode:lr-tb;text-anchor:middle;fill:#000000;fill-opacity:1;stroke:none">
        <path
           inkscape:connector-curvature="0"
           id="path3070"
           style="font-weight:bold;font-stretch:condensed;font-size:191.99998474px;line-height:125%;font-family:'Helvetica Neue LT Std';-inkscape-font-specification:'Helvetica Neue LT Std Bold Condensed';text-align:start;text-anchor:start"
           d="m 789.5535,922.21906 26.49599,0 0,-62.016 c 0,-13.82398 10.36801,-18.624 19.584,-18.624 2.688,0 5.568,0.192 8.256,0.384 l 0,-25.344 c -1.536,-0.192 -3.264,-0.384 -4.8,-0.384 -10.94399,0 -18.432,6.52801 -23.808,16.512 l -0.384,0 0,-13.824 -25.34399,0 0,103.296" />
        <path
           inkscape:connector-curvature="0"
           id="path3072"
           style="font-weight:bold;font-stretch:condensed;font-size:191.99998474px;line-height:125%;font-family:'Helvetica Neue LT Std';-inkscape-font-specification:'Helvetica Neue LT Std Bold Condensed';text-align:start;text-anchor:start"
           d="m 854.63849,922.21906 26.496,0 0,-103.296 -26.496,0 0,103.296 m 0,-115.968 26.496,0 0,-22.65599 -26.496,0 0,22.65599" />
        <path
           inkscape:connector-curvature="0"
           id="path3074"
           style="font-weight:bold;font-stretch:condensed;font-size:191.99998474px;line-height:125%;font-family:'Helvetica Neue LT Std';-inkscape-font-specification:'Helvetica Neue LT Std Bold Condensed';text-align:start;text-anchor:start"
           d="m 905.56348,818.92306 -13.44,0 0,18.048 13.44,0 0,59.136 c 0,20.92797 3.84002,27.264 24.576,27.264 6.14399,0 11.52,-0.57601 17.28,-1.152 l 0,-18.432 c -1.728,0.192 -3.84,0.384 -5.952,0.384 -7.67999,0 -9.408,-3.26401 -9.408,-11.328 l 0,-55.872 15.36,0 0,-18.048 -15.36,0 0,-29.56799 -26.496,0 0,29.56799" />
        <path
           inkscape:connector-curvature="0"
           id="path3076"
           style="font-weight:bold;font-stretch:condensed;font-size:191.99998474px;line-height:125%;font-family:'Helvetica Neue LT Std';-inkscape-font-specification:'Helvetica Neue LT Std Bold Condensed';text-align:start;text-anchor:start"
           d="m 980.41948,850.60306 0,-2.88 c 0,-8.06399 4.22401,-13.44 12.288,-13.44 8.83202,0 12.28802,4.80001 12.28802,12.672 0,6.91199 -2.688,9.984 -10.56002,12.096 l -14.976,4.032 c -18.23998,4.99199 -26.112,12.86402 -26.112,32.256 0,13.82398 6.52802,29.56799 24.96,29.56799 12.67199,0 20.16,-2.68801 26.30402,-13.43999 l 0.384,0 c 0.768,3.45599 1.536,7.488 3.264,10.752 l 25.344,0 c -2.688,-5.952 -3.264,-10.36801 -3.264,-19.968 l 0,-54.336 c 0,-18.62398 -5.9521,-31.68 -37.44002,-31.68 -19.96798,0 -36.288,8.06403 -36.288,31.872 l 0,2.496 23.808,0 m 24.57602,40.32 c 0,11.32799 -9.21603,15.936 -16.32002,15.936 -7.10399,0 -9.984,-6.52801 -9.984,-14.4 0,-9.21599 4.22401,-14.4 14.976,-16.704 3.26399,-0.768 7.68002,-2.496 11.32802,-5.184 l 0,20.352" />
        <path
           inkscape:connector-curvature="0"
           id="path3078"
           style="font-weight:bold;font-stretch:condensed;font-size:191.99998474px;line-height:125%;font-family:'Helvetica Neue LT Std';-inkscape-font-specification:'Helvetica Neue LT Std Bold Condensed';text-align:start;text-anchor:start"
           d="m 1044.6375,888.42706 0,3.648 c 0,19.77598 8.256,32.83199 38.016,32.83199 22.2719,0 38.4,-10.75202 38.4,-32.44799 0,-15.55199 -6.1441,-24.00001 -22.848,-29.568 l -15.936,-5.376 c -8.832,-2.88 -11.52,-7.104 -11.52,-12.096 0,-7.29599 5.76,-11.136 12.48,-11.136 8.64,0 11.712,5.18401 11.712,15.552 l 23.808,0 0,-4.224 c 0,-18.62398 -11.3281,-29.376 -35.328,-29.376 -27.264,0 -38.016,14.01602 -38.016,31.104 0,14.59199 7.488,23.616 22.08,28.8 l 18.624,6.72 c 5.184,1.92 9.6,4.992 9.6,11.712 0,8.25599 -5.376,12.288 -13.44,12.288 -9.024,0 -13.824,-5.95201 -13.824,-14.976 l 0,-3.456 -23.808,0" />
        <path
           inkscape:connector-curvature="0"
           id="path3080"
           style="font-weight:bold;font-stretch:condensed;font-size:191.99998474px;line-height:125%;font-family:'Helvetica Neue LT Std';-inkscape-font-specification:'Helvetica Neue LT Std Bold Condensed';text-align:start;text-anchor:start"
           d="m 1209.2505,874.60306 0,-5.952 c 0,-31.67997 -6.9121,-52.416 -37.824,-52.416 -35.712,0 -41.088,25.72803 -41.088,53.376 0,25.72797 1.536,55.29599 39.936,55.29599 24.9599,0 36.48,-13.44002 37.44,-37.43999 l -23.808,0 c -1.536,12.67198 -5.184,19.392 -14.016,19.392 -9.792,0 -13.056,-11.90401 -13.056,-24 l 0,-8.256 52.416,0 m -52.416,-15.744 0,-4.032 c 0,-9.59999 3.072,-20.544 13.632,-20.544 10.944,0 12.864,8.83202 13.44,24.576 l -27.072,0" />
        <path
           inkscape:connector-curvature="0"
           id="path3082"
           style="font-weight:bold;font-stretch:condensed;font-size:191.99998474px;line-height:125%;font-family:'Helvetica Neue LT Std';-inkscape-font-specification:'Helvetica Neue LT Std Bold Condensed';text-align:start;text-anchor:start"
           d="m 1276.0455,922.21906 25.344,0 0,-103.296 -26.496,0 0,68.544 c 0,11.51999 -4.992,17.088 -14.016,17.088 -7.872,0 -11.328,-4.03201 -11.328,-14.4 l 0,-71.232 -26.496,0 0,76.608 c 0,20.35198 9.792,29.37599 26.304,29.37599 11.136,0 20.736,-4.608 26.304,-14.78399 l 0.384,0 0,12.096" />
        <path
           inkscape:connector-curvature="0"
           id="path3084"
           style="font-weight:bold;font-stretch:condensed;font-size:191.99998474px;line-height:125%;font-family:'Helvetica Neue LT Std';-inkscape-font-specification:'Helvetica Neue LT Std Bold Condensed';text-align:start;text-anchor:start"
           d="m 1319.0534,922.21906 26.496,0 0,-67.968 c 0,-11.90399 5.376,-17.664 13.824,-17.664 7.488,0 10.368,4.80001 10.368,13.44 l 0,72.192 26.496,0 0,-67.968 c 0,-11.90399 5.376,-17.664 13.824,-17.664 7.488,0 10.368,4.80001 10.368,13.44 l 0,72.192 26.496,0 0,-75.072 c 0,-19.96798 -8.256,-30.912 -25.728,-30.912 -12.48,0 -22.08,5.56801 -26.112,16.512 l -0.384,0 c -2.88,-10.55999 -11.712,-16.512 -23.808,-16.512 -11.136,0 -19.392,3.84001 -26.112,13.248 l -0.384,0 0,-10.56 -25.344,0 0,103.296" />
      </g>
    </g>
  </g>
</svg>
